<?xml version="1.0" encoding="utf-8"?>
<!-- Generator: Adobe Illustrator 16.0.0, SVG Export Plug-In . SVG Version: 6.00 Build 0)  -->
<!DOCTYPE svg PUBLIC "-//W3C//DTD SVG 1.1//EN" "http://www.w3.org/Graphics/SVG/1.1/DTD/svg11.dtd">
<svg version="1.1" id="Layer_1" xmlns="http://www.w3.org/2000/svg" xmlns:xlink="http://www.w3.org/1999/xlink" x="0px" y="0px"
	 width="1920px" height="1280px" viewBox="0 0 1920 1280" enable-background="new 0 0 1920 1280" xml:space="preserve">
<rect fill="#151C23" stroke="#000000" stroke-miterlimit="10" width="1920" height="1280"/>
<g opacity="0.2">
	<rect x="-26.285" y="-268.203" fill-rule="evenodd" clip-rule="evenodd" fill="#626262" width="1952.503" height="1952.508"/>
	<polygon fill-rule="evenodd" clip-rule="evenodd" fill="#333333" points="1317.6,1323.203 1762.871,1516.723 1302.705,932.123 	"/>
	<polygon fill-rule="evenodd" clip-rule="evenodd" fill="#4A4A4A" points="1317.6,1323.203 1013.098,1684.305 1302.705,932.123 	"/>
	<polygon fill-rule="evenodd" clip-rule="evenodd" fill="#363636" points="1317.6,1323.203 1013.098,1684.305 1762.871,1516.723 	
		"/>
	<polygon fill-rule="evenodd" clip-rule="evenodd" fill="#575757" points="1056.338,1179.65 1013.098,1684.305 1302.705,932.123 	
		"/>
	<polygon fill-rule="evenodd" clip-rule="evenodd" fill="#686868" points="1056.338,1179.65 722.722,936.445 1302.705,932.123 	"/>
	<polygon fill-rule="evenodd" clip-rule="evenodd" fill="#515151" points="1056.338,1179.65 722.722,936.445 1013.098,1684.305 	"/>
	<polygon fill-rule="evenodd" clip-rule="evenodd" fill="#686868" points="278.22,1130.061 723.395,936.352 723.395,936.445 
		263.42,1521.141 	"/>
	<polygon fill-rule="evenodd" clip-rule="evenodd" fill="#575757" points="278.22,1130.061 -26.189,768.965 263.42,1521.141 	"/>
	<polygon fill-rule="evenodd" clip-rule="evenodd" fill="#515151" points="278.22,1130.061 -26.189,768.965 723.395,936.352 	"/>
	<polygon fill-rule="evenodd" clip-rule="evenodd" fill="#727272" points="708.69,541.143 1000.99,320.334 723.395,936.445 	"/>
	<polygon fill-rule="evenodd" clip-rule="evenodd" fill="#565656" points="873.388,601.678 1302.705,932.123 723.395,936.445 	"/>
	<polygon fill-rule="evenodd" clip-rule="evenodd" fill="#6C6C6C" points="873.388,601.678 1302.705,932.123 1000.99,320.334 	"/>
	<polygon fill-rule="evenodd" clip-rule="evenodd" fill="#5C5C5C" points="708.69,1323.203 263.42,1516.723 723.395,936.445 	"/>
	<polygon fill-rule="evenodd" clip-rule="evenodd" fill="#565656" points="708.69,1323.203 1013.098,1684.305 723.395,936.445 	"/>
	<polygon fill-rule="evenodd" clip-rule="evenodd" fill="#727272" points="708.69,1323.203 1013.098,1684.305 263.42,1516.723 	"/>
	<polygon fill-rule="evenodd" clip-rule="evenodd" fill="#424242" points="1625.273,981.322 1926.219,769.352 1302.705,932.123 	"/>
	<polygon fill-rule="evenodd" clip-rule="evenodd" fill="#545454" points="1625.273,981.322 1762.871,1516.723 1302.705,932.123 	
		"/>
	<polygon fill-rule="evenodd" clip-rule="evenodd" fill="#3E3E3E" points="1625.273,981.322 1762.871,1516.723 1926.219,769.352 	
		"/>
	<polygon fill-rule="evenodd" clip-rule="evenodd" fill="#393939" points="537.944,709.201 723.395,936.352 708.69,541.143 	"/>
	<polygon fill-rule="evenodd" clip-rule="evenodd" fill="#3C3C3C" points="537.944,709.201 -26.285,768.775 708.69,541.143 	"/>
	<polygon fill-rule="evenodd" clip-rule="evenodd" fill="#4F4F4F" points="538.616,709.201 -26.285,768.775 723.395,936.352 	"/>
	<polygon fill-rule="evenodd" clip-rule="evenodd" fill="#535353" points="1410.035,697.285 1926.219,769.352 1302.705,932.123 	"/>
	<polygon fill-rule="evenodd" clip-rule="evenodd" fill="#3C3C3C" points="1410.035,697.285 1000.99,320.334 1302.705,932.123 	"/>
	<polygon fill-rule="evenodd" clip-rule="evenodd" fill="#404040" points="1410.035,697.285 1000.99,320.334 1926.219,769.352 	"/>
	<polygon fill-rule="evenodd" clip-rule="evenodd" fill="#4C4C4C" points="314.444,498.48 708.69,541.143 263.325,16.601 	"/>
	<polygon fill-rule="evenodd" clip-rule="evenodd" fill="#484848" points="314.444,498.48 -26.285,768.775 263.325,16.601 	"/>
	<polygon fill-rule="evenodd" clip-rule="evenodd" fill="#515151" points="314.444,498.48 -26.285,768.775 708.69,541.143 	"/>
	<polygon fill-rule="evenodd" clip-rule="evenodd" fill="#676767" points="644.888,280.938 709.076,541.623 1000.99,320.334 	"/>
	<polygon fill-rule="evenodd" clip-rule="evenodd" fill="#505050" points="644.888,280.938 263.325,16.601 1000.99,320.334 	"/>
	<polygon fill-rule="evenodd" clip-rule="evenodd" fill="#565656" points="644.888,280.938 263.325,16.601 709.076,541.623 	"/>
	<polygon fill-rule="evenodd" clip-rule="evenodd" fill="#686868" points="1597.695,1684.305 1013.098,1684.305 1764.408,1514.803 	
		"/>
	<polygon fill-rule="evenodd" clip-rule="evenodd" fill="#575757" points="1926.219,1684.305 1926.219,1501.256 1764.408,1514.803 	
		"/>
	<polygon fill-rule="evenodd" clip-rule="evenodd" fill="#515151" points="1764.408,1514.803 1926.219,1684.305 1597.695,1684.305 	
		"/>
	<polygon fill-rule="evenodd" clip-rule="evenodd" fill="#535353" points="1860.688,1284.191 1762.871,1516.723 1926.508,769.832 	
		"/>
	<polygon fill-rule="evenodd" clip-rule="evenodd" fill="#646464" points="1860.688,1284.191 1926.219,1347.035 1926.219,769.352 	
		"/>
	<polygon fill-rule="evenodd" clip-rule="evenodd" fill="#4E4E4E" points="1926.219,1501.256 1926.219,1394.695 1926.219,1347.035 
		1860.688,1284.191 1763.543,1514.992 1764.408,1514.803 	"/>
	<polygon fill-rule="evenodd" clip-rule="evenodd" fill="#575757" points="522.859,1623.285 453.58,1684.305 1010.982,1684.305 	"/>
	<polygon fill-rule="evenodd" clip-rule="evenodd" fill="#515151" points="522.859,1623.285 263.42,1516.723 1010.982,1684.305 	"/>
	<polygon fill-rule="evenodd" clip-rule="evenodd" fill="#626262" points="522.859,1623.285 263.42,1516.723 453.58,1684.305 	"/>
	<polygon fill-rule="evenodd" clip-rule="evenodd" fill="#646464" points="92.675,1363.941 -26.285,1684.305 -26.285,768.389 	"/>
	<polygon fill-rule="evenodd" clip-rule="evenodd" fill="#4E4E4E" points="92.675,1363.941 453.675,1684.395 -26.285,1684.305 	"/>
	<polygon fill-rule="evenodd" clip-rule="evenodd" fill="#535353" points="92.675,1363.941 260.155,1512.59 -26.089,769.16 	"/>
	<polygon fill-rule="evenodd" clip-rule="evenodd" fill="#535353" points="92.675,52.25 -26.285,-268.108 -26.285,772.521 	"/>
	<polygon fill-rule="evenodd" clip-rule="evenodd" fill="#3C3C3C" points="92.675,52.25 263.325,16.601 -26.285,-268.108 	"/>
	<polygon fill-rule="evenodd" clip-rule="evenodd" fill="#404040" points="92.675,52.25 263.325,16.601 -25.708,769.352 	"/>
	<polygon fill-rule="evenodd" clip-rule="evenodd" fill="#434343" points="1798.998,8.049 1573.289,38.508 1691.957,-268.203 	"/>
	<polygon fill-rule="evenodd" clip-rule="evenodd" fill="#474747" points="1798.998,8.049 1926.219,336.38 1573.289,38.508 	"/>
	<polygon fill-rule="evenodd" clip-rule="evenodd" fill="#3E3E3E" points="1725.588,568.624 1926.219,336.38 1575.307,401.24 	"/>
	<polygon fill-rule="evenodd" clip-rule="evenodd" fill="#3A3A3A" points="1926.219,769.352 1280.127,455.816 1575.307,401.24 	"/>
	<polygon fill-rule="evenodd" clip-rule="evenodd" fill="#515151" points="1730.008,563.531 1926.219,769.352 1926.219,336.38 	"/>
	<polygon fill-rule="evenodd" clip-rule="evenodd" fill="#4C4C4C" points="1499.109,280.938 1926.219,336.38 1280.127,455.816 	"/>
	<polygon fill-rule="evenodd" clip-rule="evenodd" fill="#515151" points="1499.109,280.938 1165.203,142.284 1280.127,455.816 	"/>
	<polygon fill-rule="evenodd" clip-rule="evenodd" fill="#575757" points="1499.109,280.938 1165.203,142.284 1926.219,336.38 	"/>
	<polygon fill-rule="evenodd" clip-rule="evenodd" fill="#515151" points="676.021,186.579 1046.922,-176.631 1000.99,320.334 	"/>
	<polygon fill-rule="evenodd" clip-rule="evenodd" fill="#575757" points="1024.244,68.681 1284.449,457.932 1000.99,320.334 	"/>
	<polygon fill-rule="evenodd" clip-rule="evenodd" fill="#686868" points="1046.922,-176.631 1281.375,455.432 1024.244,68.681 	"/>
	<polygon fill-rule="evenodd" clip-rule="evenodd" fill="#363636" points="1635.361,191.864 1926.219,336.38 1573.289,38.508 	"/>
	<polygon fill-rule="evenodd" clip-rule="evenodd" fill="#333333" points="1635.361,191.864 1384.188,198.11 1573.289,38.508 	"/>
	<polygon fill-rule="evenodd" clip-rule="evenodd" fill="#5C5C5C" points="1635.361,191.864 1384.188,198.11 1926.219,336.38 	"/>
	<polygon fill-rule="evenodd" clip-rule="evenodd" fill="#424242" points="317.423,-149.728 644.888,-268.203 263.325,16.601 	"/>
	<polygon fill-rule="evenodd" clip-rule="evenodd" fill="#3E3E3E" points="317.423,-149.728 -26.285,-268.203 263.325,16.601 	"/>
	<polygon fill-rule="evenodd" clip-rule="evenodd" fill="#3B3B3B" points="317.423,-149.728 -26.285,-268.203 644.888,-268.203 	"/>
	<polygon fill-rule="evenodd" clip-rule="evenodd" fill="#575757" points="1313.66,-268.203 1573.289,38.508 1691.957,-268.203 	"/>
	<polygon fill-rule="evenodd" clip-rule="evenodd" fill="#6C6C6C" points="1573.289,38.508 1313.66,-268.203 1352.863,-8.862 
		1384.188,198.11 	"/>
	<polygon fill-rule="evenodd" clip-rule="evenodd" fill="#727272" points="1384.188,198.11 1352.863,-8.862 1164.148,139.4 
		1165.203,142.284 	"/>
	<polygon fill-rule="evenodd" clip-rule="evenodd" fill="#565656" points="1164.148,139.4 1352.863,-8.862 1313.66,-268.203 	"/>
	<polygon fill-rule="evenodd" clip-rule="evenodd" fill="#6B6B6B" points="1164.148,139.4 1313.66,-268.203 1046.922,-176.631 	"/>
	<polygon fill-rule="evenodd" clip-rule="evenodd" fill="#555555" points="1046.922,-176.631 1313.66,-268.203 644.888,-268.203 
		644.888,-268.203 	"/>
	<polygon fill-rule="evenodd" clip-rule="evenodd" fill="#646464" points="770.477,-103.125 263.325,16.601 676.021,186.579 	"/>
	<polygon fill-rule="evenodd" clip-rule="evenodd" fill="#535353" points="263.325,16.601 770.477,-103.125 644.888,-268.203 	"/>
	<polygon fill-rule="evenodd" clip-rule="evenodd" fill="#4E4E4E" points="644.888,-268.203 657.861,-78.238 676.021,186.579 
		1046.922,-176.631 	"/>
	<polygon fill-rule="evenodd" clip-rule="evenodd" fill="#3E3E3E" points="1926.219,-268.203 1926.219,336.38 1691.957,-268.203 	
		"/>
</g>
</svg>
