<?xml version="1.0" encoding="utf-8"?>
<!-- Generator: Adobe Illustrator 16.0.0, SVG Export Plug-In . SVG Version: 6.00 Build 0)  -->
<!DOCTYPE svg PUBLIC "-//W3C//DTD SVG 1.1//EN" "http://www.w3.org/Graphics/SVG/1.1/DTD/svg11.dtd">
<svg version="1.1" id="Layer_1" xmlns="http://www.w3.org/2000/svg" xmlns:xlink="http://www.w3.org/1999/xlink" x="0px" y="0px"
	 width="500px" height="500px" viewBox="0 0 500 500" enable-background="new 0 0 500 500" xml:space="preserve">
<polygon fill="#E44F26" points="165.24,381.593 145.238,157.237 365.034,157.237 345.01,381.557 255.002,406.511 "/>
<polygon fill="#F1662A" points="255.137,387.438 327.867,367.274 344.979,175.581 255.137,175.581 "/>
<polygon fill="#EBEBEB" points="255.137,258.792 218.726,258.792 216.21,230.615 255.137,230.615 255.137,203.098 255.041,203.098 
	186.138,203.098 186.798,210.479 193.56,286.308 255.137,286.308 "/>
<polygon fill="#EBEBEB" points="255.137,330.254 255.016,330.286 224.37,322.011 222.412,300.066 207.52,300.066 194.789,300.066 
	198.645,343.271 255.01,358.918 255.137,358.883 "/>
<polygon fill="#FFFFFF" points="255.041,258.792 255.041,286.308 288.924,286.308 285.729,321.994 255.041,330.277 255.041,358.904 
	311.45,343.271 311.865,338.621 318.33,266.18 319.002,258.792 311.587,258.792 "/>
<polygon fill="#FFFFFF" points="255.041,203.098 255.041,220.188 255.041,230.547 255.041,230.615 321.417,230.615 321.417,230.615 
	321.505,230.615 322.057,224.43 323.312,210.479 323.97,203.098 "/>
<g id="Page_1">
	<g id="Layer_1_1_">
		<path id="Shape" fill="#151515" d="M321.268,102.529h-18.729l19.478,21.135v10.06h-40.117v-11.778h19.473l-19.473-21.136V90.734
			h39.369V102.529L321.268,102.529z M273.947,102.529h-18.729l19.477,21.135v10.06h-40.119v-11.778h19.476l-19.475-21.136V90.734
			h39.372L273.947,102.529L273.947,102.529z M227.087,103.007h-20.209v18.445h20.209v12.271h-34.574V90.734h34.574V103.007
			L227.087,103.007z"/>
		<path id="Shape_1_" fill="#1673B6" d="M164.973,383.685l-20.537-230.336h225.654l-20.556,230.298l-92.41,25.619L164.973,383.685z"
			/>
		<path id="Shape_2_" fill="#35A9DB" d="M257.266,389.685l74.67-20.703l17.567-196.799h-92.237V389.685z"/>
		<g id="Group" transform="translate(55.000000, 142.000000)">
			<path id="Shape_3_" fill="#FFFFFF" d="M202.266,113.63h37.38l2.582-28.927h-39.962v-28.25h0.098h70.738l-0.678,7.579
				l-6.942,77.849h-63.216V113.63L202.266,113.63z"/>
			<path id="Shape_4_" fill="#EBEBEB" d="M202.434,186.998l-0.123,0.033l-31.462-8.494l-2.012-22.53H153.55h-13.07l3.957,44.354
				l57.867,16.064l0.131-0.037V186.998L202.434,186.998z"/>
			<path id="Shape_5_" fill="#FFFFFF" d="M237.244,140.685l-3.4,37.832l-31.508,8.506v29.391l57.912-16.052l0.426-4.771
				l4.913-54.905H237.244L237.244,140.685z"/>
			<path id="Shape_6_" fill="#EBEBEB" d="M202.362,56.453v17.545v10.636v0.07h-68.146h-0.09l-0.567-6.35l-1.287-14.321l-0.675-7.58
				H202.362L202.362,56.453z"/>
			<path id="Shape_7_" fill="#EBEBEB" d="M202.266,113.633v17.548v10.635v0.069h-30.975h-0.09l-0.566-6.349l-1.288-14.323
				l-0.675-7.581L202.266,113.633L202.266,113.633z"/>
		</g>
	</g>
</g>
</svg>
