<?xml version="1.0" encoding="utf-8"?>
<!-- Generator: Adobe Illustrator 16.0.0, SVG Export Plug-In . SVG Version: 6.00 Build 0)  -->
<!DOCTYPE svg PUBLIC "-//W3C//DTD SVG 1.1//EN" "http://www.w3.org/Graphics/SVG/1.1/DTD/svg11.dtd">
<svg version="1.1" id="Layer_1" xmlns="http://www.w3.org/2000/svg" xmlns:xlink="http://www.w3.org/1999/xlink" x="0px" y="0px"
	 width="512px" height="512px" viewBox="0 0 512 512" enable-background="new 0 0 512 512" xml:space="preserve">
<path id="github-2-circle-icon" fill="#4A575D" d="M166.96,311.252c0,0.682-0.779,1.23-1.739,1.23c-0.961,0-1.739-0.551-1.739-1.23
	c0-0.684,0.778-1.234,1.739-1.234C166.181,310.018,166.96,310.568,166.96,311.252z M169.361,314.066
	c-1.123,0-2.032,0.646-2.032,1.441c0,0.799,0.909,1.443,2.032,1.443c1.122,0,2.032-0.646,2.032-1.443
	C171.394,314.715,170.483,314.066,169.361,314.066z M179.201,323.568c-1.389,0-2.514,0.799-2.514,1.781
	c0,0.983,1.125,1.779,2.514,1.779c1.386,0,2.511-0.796,2.511-1.779C181.712,324.367,180.587,323.568,179.201,323.568z
	 M156.761,304.004c-0.737,0-1.335,0.424-1.335,0.947c0,0.521,0.598,0.945,1.335,0.945s1.335-0.424,1.335-0.945
	C158.096,304.428,157.498,304.004,156.761,304.004z M160.961,306.658c-0.819,0-1.484,0.472-1.484,1.053
	c0,0.58,0.665,1.051,1.484,1.051c0.815,0,1.48-0.471,1.48-1.051C162.443,307.13,161.778,306.658,160.961,306.658z M173.921,318.797
	c-1.248,0-2.26,0.719-2.26,1.604c0,0.889,1.012,1.604,2.26,1.604s2.261-0.717,2.261-1.604
	C176.182,319.516,175.169,318.797,173.921,318.797z M462,256c0,113.771-92.229,206-206,206c-113.771,0-206-92.229-206-206
	c0-113.771,92.229-206,206-206C369.771,50,462,142.229,462,256z M355.902,266.854c0.604-1.359,1.202-2.729,1.719-4.166
	c16.121-1.293,32.729-1.166,49.437,0.457l0.265-2.75c-16.482-1.6-32.881-1.742-48.808-0.524c2.56-8.17,3.909-17.398,3.812-27.893
	c-0.21-22.294-7.644-39.658-19.325-54.068c2.242-13.573,0.554-27.146-3.682-40.724c-16.693,1.367-31.719,6.834-45.097,16.333
	c-25.002-5.072-50.001-5.395-75.004,0c-15.604-10.532-30.928-15.697-46.015-16.333c-4.474,14.951-5.161,29.688-1.382,44.177
	c-13.16,13.966-18.19,30.92-17.943,49.693c0.141,10.747,1.796,20.31,4.852,28.763c-15.692-1.149-31.824-0.995-48.049,0.576
	l0.267,2.75c16.521-1.604,32.946-1.735,48.901-0.487c0.586,1.42,1.175,2.836,1.849,4.188c-17.286-0.454-32.846,1.048-47.414,4.63
	l0.655,2.68c14.788-3.633,30.63-5.098,48.317-4.502c11.697,20.781,34.215,32.992,67.006,36.867
	c-7.618,6.188-11.714,13.485-12.769,21.746c0,0-3.447,0-17.367,0c-23.324,0-29.685-29.74-53.841-26.808
	c23.437,11.623,18.756,48.772,56.259,48.772c12.604,0,15.283,0,15.756,0v34.055c0.167,5.503-2.229,9.183-6.098,11.732
	c13.431,1.354,23.522-5.351,23.522-13.574c0-8.228,0-41.004,0-45.014c0-4.011,4.199-4.32,4.199-4.32v52.556
	c0.178,5.229-2.364,8.203-5.063,11.044c11.833,0.472,22.965-1.893,23.469-11.962c0,0,0-47.771,0-50.3c0-2.527,4.145-2.592,4.145,0
	c0,2.593,0,47.938,0,47.938c0.122,8.496,7.46,15.386,23.006,14.322c-4.159-3.349-5.436-6.729-5.436-11.628s0-51.973,0-51.973
	s4.285-0.219,4.285,4.32c0,4.54,0,36.238,0,43.834c0,9.756,11.711,13.781,25.075,13.402c-4.379-3.28-7.343-7.191-7.359-12.424
	v-52.715c-0.452-7.748-3.604-15.054-9.779-21.858c29.975-4.603,51.579-16.567,62.337-38.013c17.745-0.609,33.635,0.851,48.461,4.496
	l0.658-2.682C389.036,267.863,373.352,266.363,355.902,266.854z M213.73,331.139c-1.54,0-2.79,0.889-2.79,1.981
	c0,1.092,1.25,1.979,2.79,1.979c1.541,0,2.79-0.889,2.79-1.979C216.52,332.027,215.271,331.139,213.73,331.139z M204.521,330.96
	c-1.541,0-2.789,0.888-2.789,1.981c0,1.092,1.248,1.979,2.789,1.979c1.54,0,2.79-0.887,2.79-1.979
	C207.311,331.848,206.061,330.96,204.521,330.96z M195.19,330.659c-1.54,0-2.79,0.888-2.79,1.981c0,1.092,1.25,1.979,2.79,1.979
	c1.542,0,2.79-0.887,2.79-1.979C197.98,331.547,196.732,330.659,195.19,330.659z M186.342,328.049c-1.542,0-2.791,0.889-2.791,1.98
	c0,1.094,1.249,1.979,2.791,1.979c1.54,0,2.789-0.887,2.789-1.979S187.882,328.049,186.342,328.049z"/>
</svg>
