<?xml version="1.0" encoding="utf-8"?>
<!-- Generator: Adobe Illustrator 16.0.0, SVG Export Plug-In . SVG Version: 6.00 Build 0)  -->
<!DOCTYPE svg PUBLIC "-//W3C//DTD SVG 1.1//EN" "http://www.w3.org/Graphics/SVG/1.1/DTD/svg11.dtd">
<svg version="1.1" id="Layer_1" xmlns="http://www.w3.org/2000/svg" xmlns:xlink="http://www.w3.org/1999/xlink" x="0px" y="0px"
	 width="500px" height="500px" viewBox="0 0 500 500" enable-background="new 0 0 500 500" xml:space="preserve">
<polygon fill="#E44F26" points="165.082,401.382 144.28,168.05 372.869,168.05 352.044,401.345 258.436,427.298 "/>
<polygon fill="#F1662A" points="258.574,407.461 334.216,386.491 352.012,187.128 258.574,187.128 "/>
<polygon fill="#EBEBEB" points="258.574,273.668 220.707,273.668 218.091,244.364 258.574,244.364 258.574,215.746 258.476,215.746 
	186.817,215.746 187.502,223.423 194.535,302.285 258.574,302.285 "/>
<polygon fill="#EBEBEB" points="258.574,347.989 258.449,348.022 226.578,339.416 224.541,316.594 209.053,316.594 195.813,316.594 
	199.823,361.527 258.443,377.801 258.574,377.765 "/>
<path fill="#010101" d="M165.547,104.64h14.543v14.368h13.303V104.64h14.544v43.511h-14.543v-14.569h-13.304v14.569h-14.543
	L165.547,104.64L165.547,104.64z"/>
<path fill="#010101" d="M227.062,119.069h-12.803V104.64h40.155v14.429h-12.809v29.082h-14.542v-29.082H227.062z"/>
<path fill="#010101" d="M260.787,104.64h15.164l9.328,15.288l9.318-15.288h15.171v43.511h-14.483v-21.566l-10.006,15.471h-0.25
	l-10.012-15.471v21.566h-14.23V104.64L260.787,104.64z"/>
<path fill="#010101" d="M317.005,104.64h14.548v29.129h20.451v14.382h-34.999V104.64z"/>
<polygon fill="#FFFFFF" points="258.476,273.668 258.476,302.285 293.714,302.285 290.393,339.399 258.476,348.015 258.476,377.787 
	317.143,361.527 317.573,356.691 324.297,281.352 324.996,273.668 317.284,273.668 "/>
<polygon fill="#FFFFFF" points="258.476,215.746 258.476,233.52 258.476,244.293 258.476,244.364 327.507,244.364 327.507,244.364 
	327.6,244.364 328.174,237.931 329.478,223.423 330.162,215.746 "/>
</svg>
