<?xml version="1.0" encoding="utf-8"?>
<!-- Generator: Adobe Illustrator 16.0.0, SVG Export Plug-In . SVG Version: 6.00 Build 0)  -->
<!DOCTYPE svg PUBLIC "-//W3C//DTD SVG 1.1//EN" "http://www.w3.org/Graphics/SVG/1.1/DTD/svg11.dtd">
<svg version="1.1"
	 id="svg3163" inkscape:version="0.48.2 r9819" sodipodi:docname="JQuery_logo.svg" xmlns:sodipodi="http://sodipodi.sourceforge.net/DTD/sodipodi-0.dtd" xmlns:dc="http://purl.org/dc/elements/1.1/" xmlns:cc="http://creativecommons.org/ns#" xmlns:rdf="http://www.w3.org/1999/02/22-rdf-syntax-ns#" xmlns:svg="http://www.w3.org/2000/svg" xmlns:inkscape="http://www.inkscape.org/namespaces/inkscape"
	 xmlns="http://www.w3.org/2000/svg" xmlns:xlink="http://www.w3.org/1999/xlink" x="0px" y="0px" width="600px" height="600px"
	 viewBox="0 0 600 600" enable-background="new 0 0 600 600" xml:space="preserve">
<sodipodi:namedview  id="namedview3297" inkscape:pageopacity="0" inkscape:window-maximized="0" inkscape:window-y="508" inkscape:window-x="1335" inkscape:window-height="703" inkscape:window-width="831" inkscape:current-layer="svg3163" inkscape:pageshadow="2" objecttolerance="10" bordercolor="#666666" borderopacity="1" pagecolor="#ffffff" inkscape:cy="283.87742" inkscape:zoom="0.64172345" gridtolerance="10" inkscape:cx="261.79501" guidetolerance="10" showgrid="false">
	</sodipodi:namedview>
<path id="path3165" inkscape:connector-curvature="0" fill="#131B28" d="M290.326,282.49l0.001-0.003l-2.163,7.665L290.326,282.49
	L290.326,282.49z"/>
<path id="path3167" inkscape:connector-curvature="0" fill="#131B28" d="M301.449,299.13l-2.382-0.014L301.449,299.13z"/>
<path id="path3169" inkscape:connector-curvature="0" fill="#131B28" d="M300.836,310.576h0.004l-14.28,0.053l14.278-0.053H300.836z
	"/>
<path id="path3171" inkscape:connector-curvature="0" fill="#131B28" d="M303.83,299.144l-2.384-0.014L303.83,299.144z"/>
<path id="path3173" inkscape:connector-curvature="0" fill="#131B28" d="M302.088,309.604l2.488-9.485l-2.488,9.487l0,0V309.604z"/>
<path id="path3175" inkscape:connector-curvature="0" fill="#131B28" d="M354.66,265.92l-4.633,21.783L354.66,265.92z"/>
<path id="path3177" inkscape:connector-curvature="0" fill="#131B28" d="M342.749,265.92l-3.517,16.272L342.749,265.92
	L342.749,265.92z"/>
<path id="path3179" inkscape:connector-curvature="0" fill="#131B28" d="M353.866,264.94h-9.907c-0.551,0-1.096,0.441-1.213,0.978
	l-3.518,16.274l-3.518,16.273c-0.117,0.537-0.662,0.977-1.211,0.977h-6.012h-1.002c-6.938,0-6.135-4.798-4.715-11.373
	c0.015-0.066,0.029-0.131,0.043-0.198l0.156-0.829c0.009-0.054,0.021-0.107,0.029-0.155l0.316-1.688l0.34-1.809
	c0.102-0.545,0.26-1.342,0.361-1.843l1.6-7.813l1.6-7.813c0.11-0.539-0.25-0.981-0.8-0.981h-10.17c-0.55,0-1.094,0.442-1.206,0.979
	l-2.188,10.375l-2.186,10.373c-0.002,0.005-0.002,0.011-0.004,0.016l-0.202,0.964c-2.519,11.499-1.852,22.464,11.837,22.808
	c0.225,0.006,0.397,0.008,0.397,0.008h21.486c0.55,0,1.094-0.441,1.209-0.98l4.634-21.78l4.633-21.782
	C354.773,265.382,354.416,264.94,353.866,264.94L353.866,264.94z"/>
<path id="path3181" inkscape:connector-curvature="0" fill="#131B28" d="M393.392,299.555c0.551,0,0.911,0.441,0.8,0.98
	l-0.963,4.701"/>
<path id="path3183" inkscape:connector-curvature="0" fill="#131B28" d="M392.27,309.941l0.961-4.705l-0.963,4.707h0.002V309.941z"
	/>
<path id="path3185" inkscape:connector-curvature="0" fill="#131B28" d="M391.063,310.932c0.001,0,0.003-0.002,0.005-0.002
	c-2.916,0.025-11.679,0.09-18.264,0.09C380.819,311.02,391.062,310.932,391.063,310.932L391.063,310.932z"/>
<path id="path3187" inkscape:connector-curvature="0" fill="#131B28" d="M366.893,293.499c-0.008-0.515,0.578-1.401,1.129-1.401
	l-1.236-0.021C366.227,297.684,366.893,293.499,366.893,293.499L366.893,293.499z"/>
<path id="path3189" inkscape:connector-curvature="0" fill="#131B28" d="M373.707,311.018c-0.063,0-0.129,0-0.191,0.002
	C373.578,311.018,373.644,311.018,373.707,311.018z"/>
<path id="path3191" inkscape:connector-curvature="0" fill="#131B28" d="M393.392,299.555c0.551,0,0.911,0.441,0.8,0.98
	l-0.963,4.701l-0.156,0.768"/>
<path id="path3193" inkscape:connector-curvature="0" fill="#131B28" d="M378.397,311.008h-0.04H378.397z"/>
<path id="path3195" inkscape:connector-curvature="0" fill="#131B28" d="M375.965,311.016h-0.141H375.965z"/>
<path id="path3197" inkscape:connector-curvature="0" fill="#131B28" d="M375.223,311.018c-0.079,0-0.156,0-0.233,0
	C375.067,311.018,375.144,311.018,375.223,311.018z"/>
<path id="path3199" inkscape:connector-curvature="0" fill="#131B28" d="M374.468,311.018h-0.205H374.468z"/>
<path id="path3201" inkscape:connector-curvature="0" fill="#131B28" d="M375.823,311.016c-0.2,0-0.401,0-0.6,0
	C375.421,311.016,375.622,311.016,375.823,311.016z"/>
<path id="path3203" inkscape:connector-curvature="0" fill="#131B28" d="M378.359,311.008c-0.802,0.002-1.603,0.006-2.391,0.008
	C376.756,311.014,377.558,311.012,378.359,311.008z"/>
<path id="path3205" inkscape:connector-curvature="0" fill="#131B28" d="M391.07,310.93L391.07,310.93
	c-2.137,0.018-7.413,0.057-12.676,0.078C383.655,310.988,388.932,310.947,391.07,310.93z"/>
<path id="path3207" inkscape:connector-curvature="0" fill="#131B28" d="M392.27,309.943l0.805-3.939l-0.807,3.943
	C392.268,309.945,392.27,309.945,392.27,309.943L392.27,309.943z"/>
<path id="path3209" inkscape:connector-curvature="0" fill="#131B28" d="M374.99,311.018h-0.522H374.99z"/>
<path id="path3211" inkscape:connector-curvature="0" fill="#131B28" d="M373.514,311.02h-0.708H373.514z"/>
<path id="path3213" inkscape:connector-curvature="0" fill="#131B28" d="M374.262,311.018h-0.559H374.262z"/>
<path id="path3215" inkscape:connector-curvature="0" fill="#131B28" d="M229.329,293.617l1.539-6.822l-1.759,7.799l-1.688,7.944
	l1.479-6.964C229.014,295.035,229.208,294.154,229.329,293.617L229.329,293.617z"/>
<path id="path3217" inkscape:connector-curvature="0" fill="#131B28" d="M247.75,264.825h-10.881c-0.551,0-1.1,0.439-1.223,0.975
	l-1.031,4.554l-1.032,4.555c-0.121,0.536,0.229,0.976,0.78,0.976h10.964c0.55,0,1.097-0.439,1.215-0.977l0.997-4.554l0.998-4.551
	v-0.001C248.654,265.265,248.301,264.826,247.75,264.825L247.75,264.825z"/>
<path id="path3219" inkscape:connector-curvature="0" fill="#131B28" d="M245.382,279.974L245.382,279.974l-3.191,14.764
	L245.382,279.974L245.382,279.974z"/>
<path id="path3221" inkscape:connector-curvature="0" fill="#131B28" d="M213.773,328.893c0,0,5.485,0.07,8.972,0.07
	c-2.649,0-7.024-0.049-8.977-0.072C213.77,328.891,213.772,328.893,213.773,328.893L213.773,328.893z"/>
<path id="path3223" inkscape:connector-curvature="0" fill="#131B28" d="M232.406,279.972l-1.541,6.822L232.406,279.972z"/>
<path id="path3225" inkscape:connector-curvature="0" fill="#131B28" d="M244.594,278.996h-10.966c-0.549,0-1.1,0.439-1.221,0.977
	l-1.541,6.823l-1.539,6.822c-0.122,0.537-0.316,1.417-0.43,1.956l-1.479,6.963l-1.479,6.965c-0.115,0.537-0.352,1.404-0.528,1.926
	c0,0-2.048,6.096-5.493,6.027c-0.146-0.004-0.289-0.006-0.43-0.01c-1.668-0.031-2.979-0.055-2.979-0.055h-0.003
	c-0.549-0.008-1.101,0.422-1.229,0.955l-1.137,4.781l-1.135,4.779c-0.128,0.533,0.217,0.975,0.764,0.984
	c1.953,0.023,6.328,0.072,8.976,0.072c8.603,0,13.139-4.766,16.046-18.484l3.402-15.741l3.191-14.765
	C245.499,279.436,245.144,278.997,244.594,278.996L244.594,278.996z"/>
<path id="path3227" inkscape:connector-curvature="0" fill="#131B28" d="M400.379,310.461c-0.55,0-0.906-0.439-0.791-0.979
	l8.25-38.642"/>
<path id="path3229" inkscape:connector-curvature="0" fill="#131B28" d="M411.844,309.48l3.336-16.493L411.844,309.48z"/>
<path id="path3231" inkscape:connector-curvature="0" fill="#131B28" d="M399.709,309.973c-0.067-0.27-0.028-0.93,0.088-1.469
	l3.916-18.341l-4.125,19.32c-0.115,0.539,0.24,0.979,0.791,0.979h1.002C400.83,310.461,399.775,310.242,399.709,309.973
	L399.709,309.973z"/>
<path id="path3233" inkscape:connector-curvature="0" fill="#131B28" d="M411.194,310.242c-0.301,0.121-0.996,0.219-1.547,0.219
	h1.002c0.551,0,1.09-0.439,1.199-0.98l0.199-0.98C411.936,309.039,411.492,310.121,411.194,310.242L411.194,310.242z"/>
<path id="path3235" inkscape:connector-curvature="0" fill="#131B28" d="M413.516,301.234l1.473-7.28
	c0,0.005-0.002,0.012-0.002,0.015L413.516,301.234L413.516,301.234z"/>
<path id="path3237" inkscape:connector-curvature="0" fill="#131B28" d="M446.067,273.429l0.455,1.878
	c0.125,0.537-0.223,0.973-0.771,0.975"/>
<path id="path3239" inkscape:connector-curvature="0" fill="#131B28" d="M412.045,308.5l1.469-7.266L412.045,308.5z"/>
<path id="path3241" inkscape:connector-curvature="0" fill="#131B28" d="M445.615,271.505l0.449,1.924L445.615,271.505z"/>
<path id="path3243" inkscape:connector-curvature="0" fill="#131B28" d="M414.987,293.956c0.109-0.538,0.291-1.411,0.406-1.945
	l1.572-7.369l-1.781,8.348L414.987,293.956L414.987,293.956z"/>
<path id="path3245" inkscape:connector-curvature="0" fill="#131B28" d="M407.973,270.208c-0.108,0.52-0.249,1.177-0.342,1.611
	l-3.915,18.344l4.124-19.322L407.973,270.208L407.973,270.208z"/>
<path id="path3247" inkscape:connector-curvature="0" fill="#131B28" d="M446.518,275.307l-0.453-1.878l-0.451-1.924l-0.227-0.974
	c-0.891-3.46-3.506-5.458-9.184-5.458l-8.84-0.009l-8.141-0.01h-0.697h-8.463c-0.549,0-1.094,0.439-1.207,0.979l0,0l-0.405,1.914
	l-0.478,2.26l-0.134,0.633l-4.124,19.322l-3.915,18.341c-0.117,0.539-0.156,1.199-0.09,1.469s1.122,0.488,1.673,0.488h8.264
	c0.551,0,1.246-0.098,1.545-0.219c0.301-0.121,0.744-1.203,0.854-1.742l1.469-7.266l1.471-7.265c0-0.003,0.002-0.009,0.002-0.014
	l0.197-0.968l1.781-8.347l1.574-7.372c0.115-0.535,0.658-0.974,1.207-0.975l26.002-0.013
	C446.297,276.28,446.645,275.843,446.518,275.307L446.518,275.307z"/>
<path id="path3249" inkscape:connector-curvature="0" fill="#131B28" d="M479.99,258.329c-0.549,0.004-1.449,0.007-2,0.007h-8.322
	c-0.551,0-1.256,0.372-1.566,0.827l-18.402,26.961c-0.313,0.455-0.666,0.388-0.789-0.147l-1.354-5.94
	c-0.121-0.537-0.674-0.976-1.223-0.976h-11.832c-0.551,0-0.875,0.432-0.727,0.961l5.303,18.572c0.15,0.529,0.162,1.399,0.025,1.93
	l-2.311,8.99c-0.137,0.533,0.201,0.969,0.752,0.969h11.693c0.549,0,1.113-0.436,1.248-0.969l2.313-8.99
	c0.137-0.531,0.518-1.329,0.85-1.768l29.877-39.654c0.332-0.44,0.152-0.797-0.396-0.793l-3.137,0.021H479.99z"/>
<path id="path3251" inkscape:connector-curvature="0" fill="#131B28" d="M385.998,281.588l-0.001-0.011
	c-0.069,0.597-0.62,1.034-1.169,1.034h-15c-0.52,0-0.783-0.353-0.706-0.787c0.005-0.013,0.007-0.023,0.014-0.034
	c0,0-0.005,0.001-0.009,0.004c0.002-0.018,0.002-0.033,0.008-0.051c0,0,0.028-0.105,0.068-0.255
	c1.434-3.809,4.352-6.309,9.836-6.309C385.212,275.18,386.418,278.197,385.998,281.588L385.998,281.588z M381.598,264.275
	c-19.254,0-23.816,11.687-26.376,23.481c-2.56,12.022-2.339,23.263,17.584,23.263h0.708c0.063-0.002,0.127-0.002,0.189-0.002h0.559
	h0.204h0.522c0.078,0,0.154,0,0.233,0c0.198,0,0.399-0.002,0.601-0.002h0.141c0.789-0.002,1.589-0.006,2.391-0.008h0.04
	c5.263-0.021,10.539-0.061,12.677-0.078c0.547-0.008,1.082-0.449,1.193-0.982l0.807-3.943l0.156-0.768l0.963-4.701
	c0.111-0.539-0.25-0.98-0.8-0.98h-17.912c-7.123,0-9.239-1.893-8.46-7.458h28.633l-0.002,0.003c0.006,0,0.013-0.003,0.02-0.003
	c0.455-0.008,0.875-0.321,1.043-0.738c0.031-0.081,0.059-0.164,0.068-0.251l-0.003,0.003c4.251-16.035,3.032-26.835-15.181-26.835
	L381.598,264.275z"/>
<path id="path3253" inkscape:connector-curvature="0" fill="#131B28" d="M290.598,281.527l-0.271,0.959c0,0.004,0,0.004,0,0.004
	l-2.163,7.662l-2.161,7.66c-0.149,0.529-0.721,0.962-1.272,0.962h-11.443c-8.68,0-10.794-6.788-8.68-16.802
	c2.113-10.242,6.256-16.609,14.799-17.254C291.081,263.838,293.416,272.049,290.598,281.527L290.598,281.527z M298.445,298.185
	c0,0,5.395-13.1,6.622-20.667c1.67-10.129-3.401-24.818-22.989-24.818c-19.477,0-27.934,14.025-31.162,29.271
	c-3.227,15.356,1.001,28.824,20.368,28.714l15.277-0.057l14.28-0.053c0.549-0.004,1.111-0.441,1.252-0.971l2.487-9.489
	c0.139-0.532-0.198-0.97-0.747-0.974l-2.385-0.014l-2.383-0.015c-0.467-0.003-0.735-0.306-0.678-0.707
	c0.01-0.072,0.026-0.146,0.058-0.224L298.445,298.185z"/>
<path id="path3255" inkscape:connector-curvature="0" fill="#131B28" d="M394.864,289.417c0,0.362-0.295,0.656-0.658,0.656
	c-0.361,0-0.656-0.294-0.656-0.656s0.295-0.655,0.656-0.655C394.569,288.762,394.864,289.055,394.864,289.417z"/>
<path id="path3257" inkscape:connector-curvature="0" fill="#0868AC" d="M149.722,272.384c-5.378,7.729-4.708,17.786-0.601,25.999
	c0.098,0.196,0.2,0.391,0.301,0.584c0.064,0.123,0.125,0.249,0.192,0.37c0.038,0.072,0.08,0.144,0.12,0.213
	c0.07,0.131,0.142,0.256,0.214,0.383c0.127,0.226,0.258,0.448,0.392,0.672c0.074,0.123,0.147,0.246,0.224,0.369
	c0.148,0.238,0.301,0.477,0.456,0.711c0.064,0.102,0.127,0.201,0.193,0.301c0.214,0.318,0.434,0.637,0.66,0.951
	c0.006,0.008,0.011,0.018,0.019,0.025c0.035,0.051,0.074,0.098,0.111,0.148c0.195,0.27,0.397,0.535,0.601,0.799
	c0.074,0.096,0.15,0.193,0.226,0.289c0.182,0.229,0.367,0.455,0.556,0.682c0.07,0.086,0.141,0.17,0.212,0.254
	c0.252,0.297,0.51,0.594,0.773,0.883c0.005,0.004,0.011,0.012,0.016,0.016c0.012,0.014,0.021,0.021,0.03,0.033
	c0.257,0.281,0.52,0.555,0.786,0.828c0.083,0.086,0.167,0.172,0.252,0.254c0.207,0.209,0.416,0.414,0.628,0.617
	c0.086,0.082,0.171,0.164,0.256,0.244c0.283,0.266,0.568,0.527,0.86,0.783c0.005,0.004,0.009,0.008,0.013,0.01
	c0.05,0.045,0.101,0.086,0.15,0.127c0.256,0.223,0.518,0.443,0.781,0.662c0.107,0.086,0.215,0.17,0.323,0.258
	c0.215,0.172,0.433,0.342,0.651,0.508c0.116,0.088,0.232,0.178,0.349,0.266c0.241,0.178,0.485,0.352,0.731,0.523
	c0.089,0.064,0.176,0.129,0.266,0.189c0.025,0.018,0.048,0.035,0.073,0.053c0.233,0.16,0.472,0.314,0.71,0.469
	c0.102,0.066,0.204,0.139,0.307,0.205c0.365,0.232,0.736,0.459,1.111,0.68c0.102,0.059,0.205,0.115,0.307,0.174
	c0.276,0.16,0.553,0.314,0.834,0.469c0.152,0.082,0.308,0.158,0.462,0.236c0.198,0.104,0.395,0.211,0.597,0.311
	c0.046,0.021,0.093,0.045,0.138,0.066c0.081,0.039,0.163,0.078,0.244,0.119c0.313,0.148,0.628,0.295,0.946,0.438
	c0.067,0.029,0.133,0.059,0.2,0.09c0.365,0.158,0.733,0.311,1.104,0.457c0.089,0.037,0.179,0.072,0.269,0.105
	c0.343,0.133,0.691,0.264,1.041,0.387c0.044,0.016,0.087,0.029,0.131,0.047c0.383,0.133,0.771,0.258,1.161,0.379
	c0.093,0.025,0.187,0.057,0.28,0.082c0.397,0.121,0.79,0.264,1.199,0.34c26.008,4.742,33.563-15.631,33.563-15.631
	c-6.345,8.268-17.607,10.447-28.279,8.021c-0.404-0.092-0.796-0.219-1.191-0.334c-0.1-0.031-0.198-0.061-0.296-0.09
	c-0.385-0.119-0.768-0.244-1.147-0.375c-0.052-0.018-0.104-0.037-0.158-0.057c-0.34-0.119-0.677-0.244-1.011-0.375
	c-0.094-0.037-0.189-0.074-0.283-0.111c-0.367-0.145-0.732-0.297-1.091-0.453c-0.075-0.031-0.145-0.064-0.219-0.096
	c-0.31-0.141-0.616-0.283-0.92-0.43c-0.088-0.043-0.177-0.082-0.266-0.127c-0.239-0.117-0.477-0.242-0.713-0.363
	c-0.158-0.082-0.318-0.162-0.476-0.248c-0.288-0.154-0.571-0.314-0.853-0.479c-0.096-0.055-0.193-0.105-0.289-0.162
	c-0.375-0.219-0.746-0.449-1.112-0.68c-0.101-0.064-0.2-0.133-0.3-0.201c-0.266-0.17-0.53-0.346-0.791-0.525
	c-0.086-0.059-0.169-0.121-0.255-0.18c-0.251-0.178-0.5-0.357-0.747-0.541c-0.113-0.082-0.223-0.166-0.332-0.248
	c-0.227-0.174-0.452-0.35-0.675-0.529c-0.101-0.08-0.202-0.16-0.301-0.24c-0.284-0.232-0.564-0.469-0.84-0.709
	c-0.029-0.025-0.061-0.051-0.092-0.078c-0.299-0.262-0.593-0.531-0.884-0.802c-0.084-0.08-0.167-0.16-0.249-0.239
	c-0.215-0.205-0.427-0.412-0.634-0.622c-0.084-0.084-0.167-0.166-0.249-0.25c-0.265-0.271-0.525-0.544-0.779-0.823
	c-0.013-0.015-0.026-0.027-0.039-0.041c-0.269-0.295-0.532-0.596-0.79-0.899c-0.07-0.084-0.138-0.164-0.207-0.246
	c-0.192-0.231-0.383-0.466-0.569-0.702c-0.069-0.086-0.139-0.173-0.208-0.261c-0.224-0.29-0.442-0.579-0.656-0.874
	c-5.925-8.081-8.053-19.227-3.317-28.38"/>
<path id="path3259" inkscape:connector-curvature="0" fill="#0868AC" d="M166.416,265.873c-3.889,5.597-3.678,13.089-0.644,19.008
	c0.509,0.992,1.081,1.955,1.72,2.871c0.583,0.835,1.229,1.829,2.002,2.5c0.28,0.309,0.573,0.61,0.873,0.906
	c0.076,0.077,0.153,0.151,0.23,0.227c0.291,0.282,0.586,0.56,0.892,0.829c0.013,0.009,0.024,0.021,0.037,0.031
	c0.003,0.003,0.006,0.004,0.008,0.008c0.338,0.296,0.687,0.581,1.042,0.861c0.079,0.06,0.157,0.123,0.236,0.185
	c0.355,0.272,0.718,0.54,1.09,0.796c0.01,0.008,0.02,0.016,0.031,0.023c0.164,0.113,0.331,0.219,0.497,0.327
	c0.08,0.053,0.156,0.107,0.236,0.156c0.265,0.17,0.534,0.335,0.807,0.494c0.039,0.024,0.077,0.045,0.114,0.066
	c0.235,0.135,0.474,0.27,0.713,0.398c0.084,0.048,0.169,0.088,0.254,0.133c0.165,0.087,0.331,0.175,0.499,0.258
	c0.025,0.013,0.051,0.024,0.076,0.035c0.343,0.169,0.688,0.33,1.042,0.485c0.076,0.033,0.153,0.063,0.23,0.095
	c0.282,0.12,0.567,0.235,0.854,0.347c0.121,0.045,0.244,0.089,0.365,0.134c0.26,0.096,0.521,0.184,0.783,0.271
	c0.119,0.038,0.236,0.078,0.355,0.113c0.374,0.117,0.743,0.264,1.133,0.328c20.081,3.327,24.716-12.134,24.716-12.134
	c-4.179,6.02-12.271,8.89-20.908,6.648c-0.383-0.101-0.761-0.211-1.137-0.329c-0.115-0.034-0.228-0.072-0.341-0.109
	c-0.267-0.087-0.533-0.179-0.796-0.274c-0.121-0.044-0.241-0.089-0.359-0.134c-0.288-0.11-0.573-0.226-0.855-0.346
	c-0.078-0.033-0.156-0.063-0.231-0.098c-0.354-0.154-0.703-0.316-1.047-0.486c-0.177-0.087-0.352-0.178-0.526-0.268
	c-0.101-0.052-0.202-0.104-0.303-0.156c-0.224-0.121-0.446-0.247-0.665-0.375c-0.052-0.03-0.106-0.059-0.159-0.09
	c-0.271-0.159-0.54-0.322-0.805-0.491c-0.082-0.052-0.161-0.108-0.243-0.162c-0.175-0.113-0.35-0.229-0.521-0.345
	c-0.37-0.256-0.73-0.523-1.085-0.794c-0.082-0.065-0.164-0.128-0.245-0.192c-3.78-2.985-6.776-7.063-8.201-11.688
	c-1.493-4.797-1.171-10.181,1.416-14.551"/>
<path id="path3261" inkscape:connector-curvature="0" fill="#0868AC" d="M180.457,261.007c-2.293,3.375-2.519,7.564-0.928,11.292
	c1.678,3.955,5.116,7.059,9.128,8.529c0.165,0.062,0.331,0.116,0.499,0.173c0.073,0.022,0.146,0.048,0.22,0.069
	c0.236,0.074,0.471,0.161,0.715,0.207c11.087,2.142,14.095-5.69,14.896-6.843c-2.635,3.793-7.062,4.704-12.494,3.385
	c-0.429-0.104-0.9-0.259-1.314-0.405c-0.53-0.189-1.053-0.404-1.561-0.648c-0.965-0.464-1.884-1.026-2.736-1.67
	c-4.861-3.688-7.881-10.724-4.709-16.454"/>
<path id="path3263" inkscape:connector-curvature="0" fill="#0868AC" d="M305.334,326.725l-3.196,7.279h-3.528l0.289-6.615
	l-2.598,6.615h-3.417l-0.09-7.279l0.377-1.797h2.42l-0.466,7.189l2.686-7.189h3.373l-0.244,7.277l2.664-7.277h2.107L305.334,326.725
	L305.334,326.725z"/>
<path id="path3265" inkscape:connector-curvature="0" fill="#0868AC" d="M310.903,328.879c0.311-1.42,0.222-1.686-0.511-1.686
	h-1.109l-0.711,3.328l-1.087,3.484h-2.064l1.687-7.9l0.245-1.154h1.887l0.244,0.531c0,0,1.087-0.643,2.151-0.643
	c2.265,0,2.087,1.707,1.598,4.039H310.903L310.903,328.879z"/>
<path id="path3267" inkscape:connector-curvature="0" fill="#0868AC" d="M317.606,323.795c-0.909,0-1.486-0.266-1.264-1.375
	c0.243-1.111,0.954-1.377,1.84-1.377c0.89,0,1.488,0.266,1.244,1.377C319.203,323.508,318.494,323.795,317.606,323.795
	L317.606,323.795z M316.63,334.004h-2.043l0.399-3.551l0.711-3.283l-1.42-0.313l0.4-1.93h3.882L316.63,334.004L316.63,334.004z"/>
<path id="path3269" inkscape:connector-curvature="0" fill="#0868AC" d="M325.484,326.854l-2.552,0.313l-0.733,3.461
	c-0.2,0.955-0.2,1.221,0.645,1.221h1.708l-0.355,1.82c0,0-1.553,0.467-2.219,0.467c-2.619,0-2.598-1.443-2.13-3.598l0.71-3.395
	l-1.42-0.311l0.421-1.93h1.487l0.844-2.287h2.02l-0.488,2.287h2.485L325.484,326.854L325.484,326.854z"/>
<path id="path3271" inkscape:connector-curvature="0" fill="#0868AC" d="M330.787,326.971c-1.197,0-1.82,0.621-2.063,1.73
	l3.417-0.289C332.296,327.658,332.141,326.971,330.787,326.971L330.787,326.971z M328.392,330.342
	c-0.157,1.111,0.265,1.488,1.686,1.488h3.572l-0.354,1.686c0,0-2.152,0.6-3.75,0.6c-3.973,0-4.018-2.24-3.507-4.637
	c0.511-2.355,1.419-4.682,5.259-4.682c3.707,0,3.885,2.238,2.975,5.545H328.392L328.392,330.342z"/>
<path id="path3273" inkscape:connector-curvature="0" fill="#0868AC" d="M342.414,334.002h-2.041l0.399-3.551l1.442-6.746
	l-1.422-0.332l0.423-1.932h3.884L342.414,334.002L342.414,334.002z"/>
<path id="path3275" inkscape:connector-curvature="0" fill="#0868AC" d="M349.789,326.971c-1.2,0-1.82,0.621-2.065,1.73l3.419-0.289
	C351.296,327.658,351.143,326.971,349.789,326.971L349.789,326.971z M347.391,330.342c-0.154,1.111,0.268,1.488,1.687,1.488h3.573
	l-0.355,1.686c0,0-2.152,0.6-3.751,0.6c-3.973,0-4.017-2.24-3.506-4.637c0.511-2.355,1.421-4.682,5.261-4.682
	c3.705,0,3.883,2.238,2.975,5.545H347.391L347.391,330.342z"/>
<path id="path3277" inkscape:connector-curvature="0" fill="#0868AC" d="M362.635,327.08c0,0-2.597,0.021-3.307,0.021
	c-1.51,0-1.664,0.465-1.775,0.953l-0.09,0.443l4.795,0.357c0,0,0.021,1.529-0.178,2.395c-0.289,1.443-1.775,2.906-4.461,2.906
	c-1.332,0-3.484-0.508-3.484-0.508l0.377-1.754h3.307c1.465,0,1.666-0.4,1.755-0.799l0.11-0.576l-4.705-0.355
	c0,0-0.178-1.178,0.066-2.352c0.355-1.6,1.818-2.975,4.504-2.975c1.332,0,3.484,0.486,3.484,0.486L362.635,327.08L362.635,327.08z"
	/>
<path id="path3279" inkscape:connector-curvature="0" fill="#0868AC" d="M371.559,327.08c0,0-2.597,0.021-3.307,0.021
	c-1.51,0-1.664,0.465-1.775,0.953l-0.09,0.443l4.795,0.357c0,0,0.021,1.529-0.178,2.395c-0.289,1.443-1.775,2.906-4.461,2.906
	c-1.332,0-3.484-0.508-3.484-0.508l0.377-1.754h3.307c1.465,0,1.664-0.4,1.754-0.799l0.11-0.576l-4.705-0.355
	c0,0-0.177-1.178,0.065-2.352c0.356-1.6,1.82-2.975,4.507-2.975c1.331,0,3.483,0.486,3.483,0.486L371.559,327.08L371.559,327.08z"/>
<path id="path3281" inkscape:connector-curvature="0" fill="#0868AC" d="M374.352,335.447h-1.773l0.065-1.332
	c-0.645-0.043-0.978-0.51-0.821-1.287c0.244-1.109,0.932-1.375,1.842-1.375c0.887,0,1.485,0.266,1.242,1.375L374.352,335.447
	L374.352,335.447z"/>
<path id="path3283" inkscape:connector-curvature="0" fill="#0868AC" d="M386.223,327.17c-1.33,0-1.796,0.799-2.107,2.264
	c-0.311,1.465-0.222,2.33,1.109,2.33h1.842l1.021-4.594H386.223z M389.265,332.828l-0.245,1.176l-1.863-0.021l-0.267-0.576
	c0,0-1.644,0.709-2.751,0.709c-2.842,0-2.975-2.33-2.465-4.682c0.511-2.398,1.621-4.662,4.439-4.662
	c1.021,0,2.396,0.512,2.396,0.512l1.132-3.84h2.042L389.265,332.828L389.265,332.828z"/>
<path id="path3285" inkscape:connector-curvature="0" fill="#0868AC" d="M396.612,327.08c-1.73,0-2.287,0.975-2.598,2.395
	c-0.287,1.443-0.153,2.42,1.554,2.42c1.776,0,2.31-0.955,2.619-2.42C398.498,328.098,398.408,327.08,396.612,327.08L396.612,327.08z
	 M395.104,334.137c-3.662,0-3.951-2.285-3.463-4.662c0.51-2.373,1.798-4.637,5.46-4.637c3.639,0,3.973,2.264,3.461,4.637
	C400.052,331.895,398.764,334.137,395.104,334.137z"/>
<path id="path3287" inkscape:connector-curvature="0" fill="#0868AC" d="M415.877,334.002l0.4-3.506l0.199-0.998
	c0.289-1.332,0.467-2.309-0.932-2.309h-1.088c0.045,0.688-0.09,1.465-0.266,2.285l-0.955,4.527h-2.064l0.4-3.506l0.199-0.998
	c0.289-1.332,0.465-2.309-0.932-2.309h-0.889l-1.464,6.813h-2.376l1.932-9.076h1.863l0.289,0.555c0,0,1.266-0.666,2.287-0.666
	c0.775,0,1.354,0.355,1.553,0.799c0.443-0.244,1.709-0.799,2.619-0.799c2.84,0,2.752,2.309,2.24,4.66l-0.953,4.529h-2.064V334.002z"
	/>
<path id="path3289" inkscape:connector-curvature="0" fill="#0868AC" d="M425.311,327.08c-1.732,0-2.287,0.975-2.598,2.395
	c-0.287,1.443-0.154,2.42,1.553,2.42c1.777,0,2.311-0.955,2.621-2.42C427.198,328.098,427.108,327.08,425.311,327.08z
	 M423.801,334.137c-3.662,0-3.951-2.285-3.463-4.662c0.512-2.373,1.799-4.637,5.461-4.637c3.641,0,3.973,2.264,3.461,4.637
	C428.75,331.895,427.463,334.137,423.801,334.137z"/>
<path id="path3291" inkscape:connector-curvature="0" fill="#0868AC" d="M435.428,328.879c0.309-1.42,0.221-1.686-0.51-1.686h-1.111
	l-0.711,3.328l-1.086,3.484h-2.064l1.686-7.9l0.246-1.154h1.885l0.244,0.531c0,0,1.088-0.643,2.154-0.643
	c2.264,0,2.084,1.707,1.596,4.039H435.428L435.428,328.879z"/>
<path id="path3293" inkscape:connector-curvature="0" fill="#0868AC" d="M443.375,326.971c-1.197,0-1.818,0.621-2.063,1.73
	l3.416-0.289C444.887,327.658,444.729,326.971,443.375,326.971L443.375,326.971z M440.979,330.342
	c-0.154,1.111,0.268,1.488,1.688,1.488h3.572l-0.354,1.686c0,0-2.154,0.6-3.752,0.6c-3.973,0-4.016-2.24-3.508-4.637
	c0.512-2.355,1.422-4.682,5.262-4.682c3.705,0,3.885,2.238,2.973,5.545H440.979L440.979,330.342z"/>
<path id="path3295" inkscape:connector-curvature="0" fill="#0868AC" d="M448.854,334.139c-0.932,0-1.508-0.268-1.264-1.354
	c0.221-1.111,0.908-1.377,1.842-1.377c0.865,0,1.463,0.266,1.242,1.377C450.43,333.85,449.721,334.139,448.854,334.139z"/>
</svg>
