<?xml version="1.0" encoding="utf-8"?>
<!-- Generator: Adobe Illustrator 16.0.0, SVG Export Plug-In . SVG Version: 6.00 Build 0)  -->
<!DOCTYPE svg PUBLIC "-//W3C//DTD SVG 1.1//EN" "http://www.w3.org/Graphics/SVG/1.1/DTD/svg11.dtd">
<svg version="1.1" id="Layer_1" xmlns="http://www.w3.org/2000/svg" xmlns:xlink="http://www.w3.org/1999/xlink" x="0px" y="0px"
	 width="500px" height="500px" viewBox="0 0 500 500" enable-background="new 0 0 500 500" xml:space="preserve">
<polygon fill="#E44F26" points="167.79,385.322 148.189,165.467 363.577,165.467 343.954,385.288 255.752,409.741 "/>
<polygon fill="#F1662A" points="255.883,391.051 327.156,371.291 343.924,183.442 255.883,183.442 "/>
<polygon fill="#EBEBEB" points="255.883,264.984 220.203,264.984 217.738,237.373 255.883,237.373 255.883,210.408 255.789,210.408 
	188.269,210.408 188.915,217.642 195.542,291.949 255.883,291.949 "/>
<polygon fill="#EBEBEB" points="255.883,335.014 255.765,335.046 225.734,326.936 223.815,305.432 209.222,305.432 196.746,305.432 
	200.525,347.77 255.759,363.103 255.883,363.068 "/>
<polygon fill="#FFFFFF" points="255.789,264.984 255.789,291.949 288.992,291.949 285.863,326.92 255.789,335.037 255.789,363.09 
	311.069,347.77 311.473,343.213 317.81,272.225 318.468,264.984 311.202,264.984 "/>
<polygon fill="#FFFFFF" points="255.789,210.408 255.789,227.155 255.789,237.307 255.789,237.373 320.835,237.373 320.835,237.373 
	320.921,237.373 321.462,231.313 322.691,217.642 323.336,210.408 "/>
<g id="Page_1">
	<path fill="#63A944" d="M166.255,387.759L146.12,161.061h222.225L348.21,387.759l-90.978,25.355L166.255,387.759z"/>
	<path fill="#8CC63F" d="M257.233,393.606l73.439-20.358l17.3-193.544h-90.739V393.606z"/>
	<path id="J_1_" fill="#FFFFFF" d="M187.49,208.041l2.483,27.592h106.176l-7.969,92.365l-31.052,8.373l-30.983-8.354l-1.981-22.287
		h-27.927l3.898,43.748l56.968,15.854l57.085-15.854l12.657-141.436L187.49,208.041L187.49,208.041z"/>
	<path fill="#EBEBEB" d="M257.128,336.371l-30.983-8.354l-1.981-22.287h-27.927l3.898,43.748l57.099,15.854L257.128,336.371z
		 M189.972,235.633h67.261v-27.592H187.49L189.972,235.633z"/>
	<path fill="#010101" d="M237.15,99.911v26.846h-23.117v14.915h38.778V99.911H237.15z M260.268,99.911v15.546l17.078,12.792h-17.078
		v13.423h39.522v-13.515l-19.136-14.822h19.136V99.911H260.268z"/>
</g>
</svg>
