<?xml version="1.0" encoding="utf-8"?>
<!-- Generator: Adobe Illustrator 16.0.0, SVG Export Plug-In . SVG Version: 6.00 Build 0)  -->
<!DOCTYPE svg PUBLIC "-//W3C//DTD SVG 1.1//EN" "http://www.w3.org/Graphics/SVG/1.1/DTD/svg11.dtd">
<svg version="1.1"  xmlns="http://www.w3.org/2000/svg" xmlns:xlink="http://www.w3.org/1999/xlink" x="0px" y="0px" width="340px"
	 height="340px" viewBox="0 0 340 340" enable-background="new 0 0 340 340" xml:space="preserve">
<g id="Facebook" display="none">
	<path display="inline" d="M260.941,49.474h-181.5c-16.636,0-30.25,13.614-30.25,30.25v181.5c0,16.64,13.614,30.25,30.25,30.25
		h91.794v-86.771h-28.978v-37.802h28.978v-18.939c0-29.192,21.556-52.058,49.074-52.058h26.71v42.685h-23.896
		c-6.254,0-8.09,3.592-8.09,8.555v19.758h31.986v37.802h-31.986v86.771h45.908c16.642,0,30.25-13.61,30.25-30.25v-181.5
		C291.191,63.087,277.583,49.474,260.941,49.474z"/>
</g>
<g id="Layer_2" display="none">
	<path display="inline" d="M308.18,84.871c-10.16,4.506-21.07,7.547-32.525,8.918c11.695-7.008,20.672-18.105,24.902-31.327
		c-10.945,6.486-23.062,11.2-35.959,13.74c-10.33-11.007-25.049-17.88-41.332-17.88c-31.271,0-56.625,25.351-56.625,56.622
		c0,4.438,0.498,8.76,1.465,12.902c-47.057-2.358-88.793-24.902-116.713-59.162c-4.875,8.364-7.67,18.091-7.67,28.468
		c0,19.644,9.996,36.973,25.189,47.13c-9.275-0.293-18.012-2.836-25.646-7.078c-0.006,0.234-0.006,0.469-0.006,0.709
		c0,27.437,19.523,50.323,45.422,55.523c-4.746,1.295-9.75,1.989-14.918,1.989c-3.645,0-7.189-0.354-10.652-1.017
		c7.207,22.494,28.125,38.868,52.898,39.322c-19.383,15.19-43.793,24.243-70.324,24.243c-4.57,0-9.076-0.27-13.506-0.8
		c25.055,16.072,54.814,25.45,86.801,25.45c104.15,0,161.109-86.288,161.109-161.118c0-2.449-0.053-4.893-0.164-7.327
		C290.988,106.202,300.586,96.229,308.18,84.871z"/>
</g>
<g id="Layer_3">
	<g>
		<path fill="#4a575d" d="M105.081,78.584c0,14.056-10.378,25.44-27.453,25.44c-16.062,0-26.438-11.384-26.438-25.44
			c0-14.395,10.712-25.442,27.111-25.442C94.703,53.142,104.75,64.189,105.081,78.584z M52.528,287.806V124.111h50.883v163.695
			H52.528z"/>
		<path fill="#4a575d" d="M133.86,176.331c0-20.417-0.667-37.487-1.333-52.22h44.18l2.35,22.764h1.002
			c6.694-10.717,23.098-26.45,50.55-26.45c33.474,0,58.58,22.432,58.58,70.633v96.747h-50.885v-90.72
			c0-21.091-7.365-35.48-25.778-35.48c-14.059,0-22.421,9.705-26.104,19.079c-1.343,3.345-1.679,8.034-1.679,12.722v94.399H133.86
			V176.331z"/>
	</g>
</g>
<g id="Layer_4" display="none">
	<path display="inline" fill="#4a575d" d="M120.522,100.479c0,15.031-12.186,27.212-27.212,27.212
		c-15.031,0-27.212-12.182-27.212-27.212c0-1.791,0.178-3.54,0.507-5.233h-18.3v36.174c0,7.768,6.292,14.064,14.064,14.064h61.882
		c7.764,0,14.064-6.296,14.064-14.064V95.246h-18.302C120.345,96.939,120.522,98.688,120.522,100.479z M124.251,55.474H62.369
		c-7.772,0-14.064,6.298-14.064,14.065v15.241h22.783c4.929-6.963,13.042-11.513,22.223-11.513c9.178,0,17.292,4.549,22.218,11.513
		h22.787V69.539C138.315,61.772,132.015,55.474,124.251,55.474z M131.125,72.847c0,1.383-1.128,2.513-2.51,2.513h-7.537
		c-1.379,0-2.512-1.129-2.512-2.513v-7.535c0-1.383,1.133-2.513,2.512-2.513h7.537c1.382,0,2.51,1.13,2.51,2.513V72.847z
		 M110.056,100.479c0-9.249-7.499-16.746-16.746-16.746c-9.25,0-16.746,7.497-16.746,16.746s7.496,16.746,16.746,16.746
		C102.558,117.225,110.056,109.728,110.056,100.479z"/>
	<path display="inline" fill="#4a575d" d="M206.287,140.397c-2.75,14.41-6.106,28.224-16.049,35.44
		c-3.068-21.778,4.507-38.134,8.025-55.5c-5.998-10.097,0.722-30.418,13.373-25.41c15.566,6.159-13.481,37.538,6.018,41.458
		c20.36,4.09,28.673-35.326,16.048-48.145c-18.241-18.508-53.099-0.421-48.812,26.078c1.042,6.48,7.734,8.444,2.674,17.386
		c-11.675-2.588-15.16-11.795-14.711-24.073c0.722-20.092,18.055-34.161,35.438-36.106c21.985-2.461,42.62,8.07,45.47,28.751
		c3.209,23.343-9.923,48.625-33.434,46.806C213.957,146.589,211.281,143.433,206.287,140.397z"/>
	<path display="inline" fill="#4a575d" d="M76.372,192.523c0,7.815,2.61,13.459,7.758,16.774c4.213,2.715,9.107,3.12,11.648,3.12
		c0.617,0,1.112-0.023,1.458-0.046c0,0-0.808,5.25,3.086,10.447l-0.176-0.002c-6.746,0-28.75,1.409-28.75,19.497
		c0,18.405,20.209,19.34,24.263,19.34c0.317,0,0.503-0.007,0.503-0.007c0.045,0.002,0.335,0.013,0.828,0.013
		c2.603,0,9.328-0.327,15.573-3.362c8.102-3.934,12.212-10.773,12.212-20.331c0-9.236-6.262-14.733-10.833-18.751
		c-2.79-2.447-5.2-4.562-5.2-6.617c0-2.095,1.76-3.669,3.986-5.663c3.606-3.225,7.004-7.813,7.004-16.489
		c0-7.627-0.99-12.746-7.082-15.994c0.636-0.325,2.88-0.562,3.993-0.715c3.301-0.451,8.132-0.963,8.132-3.659v-0.521h-24.066
		C100.467,169.562,76.372,170.456,76.372,192.523z M115.22,239.688c0.46,7.36-5.836,12.791-15.289,13.479
		c-9.602,0.701-17.507-3.622-17.967-10.973c-0.223-3.531,1.331-6.995,4.371-9.751c3.085-2.793,7.318-4.516,11.924-4.854
		c0.544-0.035,1.083-0.057,1.621-0.057C108.766,227.533,114.784,232.756,115.22,239.688z M108.936,187.486
		c2.361,8.304-1.204,16.986-6.885,18.587c-0.652,0.183-1.329,0.277-2.011,0.277c-5.205,0-10.362-5.267-12.271-12.519
		c-1.067-4.074-0.981-7.636,0.243-11.061c1.204-3.369,3.365-5.645,6.085-6.41c0.654-0.185,1.333-0.278,2.014-0.278
		C102.395,176.083,106.434,178.688,108.936,187.486z M149.484,205.571v-15.699h-9.943v15.699h-15.699v9.943h15.699v15.699h9.943
		v-15.699h15.7v-9.943H149.484z"/>
	<g display="inline">
		<path fill="#4a575d" d="M220.882,248.054v-32.445h-19.887c-5.756,0-10.466,4.71-10.466,10.466v31.399
			c0,5.757,4.71,10.467,10.466,10.467h5.233v15.699l15.699-15.699h26.166c5.757,0,10.467-4.71,10.467-10.467v-9.526
			c-0.338,0.07-0.69,0.106-1.047,0.106H220.882z M284.727,189.442h-47.099c-5.757,0-10.467,4.71-10.467,10.467v41.865h36.632
			l15.7,15.699v-15.699h5.233c5.756,0,10.466-4.71,10.466-10.467v-31.398C295.192,194.152,290.482,189.442,284.727,189.442z"/>
	</g>
</g>
</svg>
