<?xml version="1.0" encoding="utf-8"?>
<!-- Generator: Adobe Illustrator 16.0.0, SVG Export Plug-In . SVG Version: 6.00 Build 0)  -->
<!DOCTYPE svg PUBLIC "-//W3C//DTD SVG 1.1//EN" "http://www.w3.org/Graphics/SVG/1.1/DTD/svg11.dtd">
<svg version="1.1" id="Layer_1" xmlns="http://www.w3.org/2000/svg" xmlns:xlink="http://www.w3.org/1999/xlink" x="0px" y="0px"
	 width="1275.59px" height="1275.59px" viewBox="0 0 1275.59 1275.59" enable-background="new 0 0 1275.59 1275.59"
	 xml:space="preserve">
<g>
	<polygon fill="#4A575D" stroke="#4A575D" stroke-miterlimit="10" points="946.021,108.886 1251.59,638.143 946.021,1167.399 
		334.888,1167.399 29.322,638.144 334.889,108.886 	"/>
	<g>
		<polygon fill="none" stroke="#181C1D" stroke-width="60" stroke-miterlimit="10" points="892.795,201.076 1145.137,638.142 
			892.795,1075.209 388.113,1075.209 135.773,638.143 388.114,201.076 		"/>
	</g>
	
		<rect x="384.741" y="180.962" fill="#4A575D" stroke="#4A575D" stroke-width="80" stroke-miterlimit="10" width="512.902" height="894.247"/>
	
		<rect x="303.308" y="228.706" transform="matrix(0.7071 -0.7071 0.7071 0.7071 -91.6839 326.8468)" fill="#4A575D" stroke="#4A575D" stroke-miterlimit="10" width="90.778" height="90.779"/>
	
		<rect x="302.854" y="957.745" transform="matrix(0.7071 -0.7071 0.7071 0.7071 -607.3271 540.0599)" fill="#4A575D" stroke="#4A575D" stroke-miterlimit="10" width="90.779" height="90.78"/>
	
		<rect x="887.193" y="228.706" transform="matrix(0.7071 -0.7071 0.7071 0.7071 79.3338 739.7191)" fill="#4A575D" stroke="#4A575D" stroke-miterlimit="10" width="90.778" height="90.779"/>
	
		<rect x="892.97" y="954.295" transform="matrix(0.7071 -0.7071 0.7071 0.7071 -432.0444 956.3215)" fill="#4A575D" stroke="#4A575D" stroke-miterlimit="10" width="90.779" height="90.78"/>
	<g>
		<path fill="#181C1D" stroke="#181C1D" stroke-width="30" stroke-miterlimit="10" d="M668.24,637.326
			c0,116-70.501,177.5-156.501,177.5c-89,0-151.5-69-151.5-171c0-107,66.5-177,156.5-177
			C608.739,466.826,668.24,537.326,668.24,637.326z M406.739,642.826c0,72,39,136.5,107.5,136.5c69,0,108-63.5,108-140
			c0-67-35-137-107.5-137C442.739,502.326,406.739,568.826,406.739,642.826z"/>
		<path fill="#181C1D" stroke="#181C1D" stroke-width="30" stroke-miterlimit="10" d="M718.737,756.326c19.5,12,48,22,78,22
			c44.5,0,70.5-23.5,70.5-57.5c0-31.5-18-49.5-63.5-67c-55-19.5-89-48-89-95.5c0-52.5,43.5-91.5,109-91.5c34.5,0,59.5,8,74.5,16.5
			l-12,35.5c-11-6-33.5-16-64-16c-46,0-63.5,27.5-63.5,50.5c0,31.5,20.5,47,67,65c57,22,86,49.5,86,99c0,52-38.5,97-118,97
			c-32.5,0-68-9.5-86-21.5L718.737,756.326z"/>
	</g>
</g>
</svg>
