<?xml version="1.0" encoding="utf-8"?>
<!-- Generator: Adobe Illustrator 16.0.0, SVG Export Plug-In . SVG Version: 6.00 Build 0)  -->
<!DOCTYPE svg PUBLIC "-//W3C//DTD SVG 1.1//EN" "http://www.w3.org/Graphics/SVG/1.1/DTD/svg11.dtd">
<svg version="1.1" id="Layer_1" xmlns="http://www.w3.org/2000/svg" xmlns:xlink="http://www.w3.org/1999/xlink" x="0px" y="0px"
	 width="1275.59px" height="1275.59px" viewBox="0 0 1275.59 1275.59" enable-background="new 0 0 1275.59 1275.59"
	 xml:space="preserve">
<polygon fill="#F26838" stroke="#F26838" stroke-miterlimit="10" points="945.021,108.886 1250.589,638.143 945.021,1167.399 
	333.888,1167.399 28.321,638.144 333.889,108.886 "/>
<g>
	<polygon fill="none" stroke="#FCCAA4" stroke-width="60" stroke-miterlimit="10" points="891.794,201.076 1144.136,638.142 
		891.794,1075.209 387.113,1075.209 134.773,638.143 387.114,201.076 	"/>
</g>
<rect x="383.741" y="180.962" fill="#F26838" stroke="#F26838" stroke-width="80" stroke-miterlimit="10" width="512.902" height="894.247"/>
<rect x="302.307" y="228.706" transform="matrix(0.7071 -0.7071 0.7071 0.7071 -91.977 326.1393)" fill="#F26838" stroke="#F26838" stroke-miterlimit="10" width="90.778" height="90.779"/>
<rect x="301.853" y="957.745" transform="matrix(0.7071 -0.7071 0.7071 0.7071 -607.6202 539.3525)" fill="#F26838" stroke="#F26838" stroke-miterlimit="10" width="90.779" height="90.78"/>
<rect x="886.192" y="228.706" transform="matrix(0.7071 -0.7071 0.7071 0.7071 79.0406 739.0113)" fill="#F26838" stroke="#F26838" stroke-miterlimit="10" width="90.778" height="90.779"/>
<rect x="891.969" y="954.295" transform="matrix(0.7071 -0.7071 0.7071 0.7071 -432.3376 955.6136)" fill="#F26838" stroke="#F26838" stroke-miterlimit="10" width="90.779" height="90.78"/>
<g>
	<path fill="#FCCAA4" stroke="#FCCAA4" stroke-width="30" stroke-miterlimit="10" d="M667.239,637.326c0,116-70.5,177.5-156.5,177.5
		c-89,0-151.5-69-151.5-171c0-107,66.5-177,156.5-177C607.739,466.826,667.239,537.326,667.239,637.326z M405.739,642.826
		c0,72,39,136.5,107.5,136.5c69,0,108-63.5,108-140c0-67-35-137-107.5-137C441.739,502.326,405.739,568.826,405.739,642.826z"/>
	<path fill="#FCCAA4" stroke="#FCCAA4" stroke-width="30" stroke-miterlimit="10" d="M717.736,756.326c19.5,12,48,22,78,22
		c44.5,0,70.5-23.5,70.5-57.5c0-31.5-18-49.5-63.5-67c-55-19.5-89-48-89-95.5c0-52.5,43.5-91.5,109-91.5c34.5,0,59.5,8,74.5,16.5
		l-12,35.5c-11-6-33.5-16-64-16c-46,0-63.5,27.5-63.5,50.5c0,31.5,20.5,47,67,65c57,22,86,49.5,86,99c0,52-38.5,97-118,97
		c-32.5,0-68-9.5-86-21.5L717.736,756.326z"/>
</g>
</svg>
