<?xml version="1.0" encoding="utf-8"?>
<!-- Generator: Adobe Illustrator 16.0.0, SVG Export Plug-In . SVG Version: 6.00 Build 0)  -->
<!DOCTYPE svg PUBLIC "-//W3C//DTD SVG 1.1//EN" "http://www.w3.org/Graphics/SVG/1.1/DTD/svg11.dtd">
<svg version="1.1" id="Layer_1" xmlns="http://www.w3.org/2000/svg" xmlns:xlink="http://www.w3.org/1999/xlink" x="0px" y="0px"
	 width="500px" height="500px" viewBox="0 0 500 500" enable-background="new 0 0 500 500" xml:space="preserve">
<g id="layer1" transform="translate(-937.60684,-1834.4815)">
	<path id="path12245" fill="#010101" d="M1277.869,2053.337h-2.182v6.783h-0.891v-6.783h-2.189v-0.807h5.262V2053.337z"/>
	<path id="path12257" fill="#010101" d="M1286.804,2060.119h-0.885v-5.097c0-0.402,0.031-0.895,0.072-1.474l0,0
		c-0.092,0.347-0.168,0.587-0.236,0.741l-2.584,5.829h-0.434l-2.59-5.785c-0.078-0.161-0.152-0.422-0.234-0.784h-0.031
		c0.031,0.306,0.041,0.8,0.041,1.484v5.085h-0.852v-7.59h1.174l2.328,5.298c0.178,0.397,0.287,0.704,0.344,0.91h0.033
		c0.156-0.418,0.281-0.729,0.367-0.934l2.375-5.274h1.119v7.59H1286.804L1286.804,2060.119z"/>
	<path id="path12261" fill="#010101" d="M1279.898,2088.301c0-0.413-0.115-0.71-0.348-0.902c-0.26-0.208-0.707-0.318-1.328-0.318
		h-0.895v2.458h1.08C1279.404,2089.538,1279.898,2089.123,1279.898,2088.301 M1281.291,2093.425h-1.229l-0.783-1.729
		c-0.398-0.866-0.824-1.3-1.289-1.3h-0.664v3.029h-1.01v-7.208h2.027c0.902,0,1.58,0.195,2.043,0.603
		c0.395,0.351,0.592,0.8,0.592,1.359c0,0.497-0.16,0.914-0.484,1.261c-0.314,0.351-0.77,0.587-1.348,0.709v0.03
		c0.404,0.096,0.805,0.537,1.193,1.333l0.951,1.918V2093.425L1281.291,2093.425z M1283.537,2089.892
		c0-1.418-0.484-2.616-1.449-3.564c-0.971-0.95-2.15-1.425-3.545-1.425c-1.439,0-2.637,0.476-3.586,1.433
		c-0.949,0.962-1.42,2.151-1.42,3.557c0,1.438,0.49,2.639,1.469,3.597c0.965,0.957,2.146,1.43,3.537,1.43
		c1.383,0,2.564-0.477,3.535-1.445C1283.052,2092.519,1283.537,2091.321,1283.537,2089.892 M1284.216,2089.86
		c0,1.592-0.545,2.927-1.646,4.002c-1.098,1.084-2.445,1.623-4.057,1.623c-1.623,0-2.971-0.532-4.041-1.576
		c-1.07-1.059-1.602-2.39-1.602-4.005c0-1.58,0.541-2.907,1.629-3.998c1.088-1.087,2.441-1.63,4.061-1.63
		c1.588,0,2.92,0.52,3.998,1.556C1283.666,2086.896,1284.216,2088.235,1284.216,2089.86"/>
	<path id="path12265" fill="#010101" d="M1130.153,2109.961h-3.494v-19.993c0-1.58,0.104-3.503,0.29-5.771h-0.079
		c-0.327,1.328-0.626,2.288-0.89,2.884l-10.156,22.881h-1.701l-10.174-22.716c-0.288-0.634-0.587-1.655-0.892-3.049h-0.075
		c0.107,1.193,0.167,3.127,0.167,5.811v19.954h-3.369v-29.775h4.609l9.135,20.764c0.689,1.563,1.134,2.753,1.351,3.564h0.144
		c0.595-1.627,1.067-2.849,1.426-3.652l9.332-20.676h4.372v29.775H1130.153z"/>
	<path id="path12267" fill="#010101" d="M1140.901,2109.96h-3.396v-21.263h3.396V2109.96z M1141.487,2081.076
		c0,0.626-0.222,1.149-0.658,1.578c-0.43,0.43-0.961,0.646-1.583,0.646c-0.606,0-1.135-0.207-1.568-0.622
		c-0.433-0.418-0.646-0.949-0.646-1.603c0-0.616,0.214-1.14,0.646-1.564c0.433-0.425,0.961-0.63,1.568-0.63
		c0.622,0,1.154,0.205,1.583,0.63C1141.266,2079.937,1141.487,2080.461,1141.487,2081.076"/>
	<path id="path12271" fill="#010101" d="M1162.12,2108.977c-1.631,1.001-3.578,1.497-5.826,1.497c-3.049,0-5.504-1.013-7.378-3.033
		c-1.821-1.962-2.738-4.494-2.738-7.598c0-3.483,0.997-6.303,3.006-8.446c1.997-2.146,4.684-3.217,8.063-3.217
		c1.847,0,3.486,0.362,4.919,1.079v3.495c-1.586-1.116-3.265-1.666-5.065-1.666c-2.167,0-3.926,0.755-5.294,2.264
		c-1.422,1.545-2.142,3.607-2.142,6.184c0,2.474,0.657,4.433,1.965,5.877c1.312,1.438,3.057,2.16,5.258,2.16
		c1.86,0,3.601-0.612,5.231-1.829L1162.12,2108.977L1162.12,2108.977z"/>
	<path id="path12275" fill="#010101" d="M1178.36,2092.147c-0.599-0.46-1.462-0.686-2.6-0.686c-1.381,0-2.545,0.619-3.486,1.867
		c-1.067,1.395-1.6,3.324-1.6,5.791v10.839h-3.402v-21.262h3.402v4.384h0.083c0.501-1.552,1.272-2.746,2.304-3.592
		c0.964-0.771,2.056-1.162,3.257-1.162c0.906,0,1.58,0.097,2.041,0.289v3.529L1178.36,2092.147L1178.36,2092.147z"/>
	<path id="path12279" fill="#010101" d="M1197.328,2099.366c0-2.721-0.613-4.801-1.842-6.227c-1.195-1.37-2.86-2.056-5.008-2.056
		c-2.115,0-3.813,0.692-5.082,2.08c-1.344,1.481-2.012,3.572-2.012,6.286c0,2.545,0.637,4.542,1.926,5.967
		c1.279,1.434,3.006,2.151,5.168,2.151c2.237,0,3.95-0.729,5.123-2.178C1196.753,2103.973,1197.328,2101.968,1197.328,2099.366
		 M1200.818,2099.247c0,3.388-0.957,6.11-2.863,8.151c-1.914,2.048-4.49,3.071-7.729,3.071c-3.19,0-5.731-1.023-7.595-3.071
		c-1.822-1.974-2.74-4.582-2.74-7.822c0-3.699,1.035-6.551,3.114-8.576c1.923-1.879,4.495-2.824,7.718-2.824
		c3.17,0,5.648,0.988,7.432,2.946C1199.923,2093.092,1200.818,2095.801,1200.818,2099.247"/>
	<path id="path12283" fill="#010101" d="M1217.696,2104.271c0,1.74-0.649,3.183-1.953,4.334c-1.423,1.244-3.376,1.866-5.834,1.866
		c-2.013,0-3.777-0.421-5.274-1.28v-3.658c1.666,1.354,3.506,2.036,5.527,2.036c2.693,0,4.046-0.992,4.046-2.97
		c0-0.832-0.297-1.521-0.895-2.053c-0.599-0.543-1.761-1.193-3.49-1.953c-1.78-0.78-3.05-1.579-3.797-2.41
		c-0.898-0.985-1.353-2.265-1.353-3.841c0-1.765,0.707-3.233,2.1-4.403c1.398-1.174,3.195-1.761,5.4-1.761
		c1.691,0,3.203,0.331,4.546,0.997v3.426c-1.401-1.013-3.005-1.517-4.825-1.517c-1.127,0-2.033,0.28-2.707,0.826
		c-0.68,0.56-1.023,1.273-1.023,2.144c0,0.941,0.287,1.675,0.855,2.198c0.504,0.484,1.574,1.076,3.189,1.766
		c1.816,0.759,3.127,1.547,3.928,2.354C1217.172,2101.394,1217.696,2102.692,1217.696,2104.271"/>
	<path id="path12287" fill="#010101" d="M1238.496,2099.366c0-2.721-0.615-4.801-1.848-6.227c-1.189-1.37-2.859-2.056-5.002-2.056
		c-2.116,0-3.814,0.692-5.09,2.08c-1.338,1.481-2.005,3.572-2.005,6.286c0,2.545,0.638,4.542,1.915,5.967
		c1.295,1.434,3.02,2.151,5.18,2.151c2.24,0,3.949-0.729,5.124-2.178C1237.92,2103.973,1238.496,2101.968,1238.496,2099.366
		 M1241.992,2099.247c0,3.388-0.965,6.11-2.875,8.151c-1.907,2.048-4.482,3.071-7.721,3.071c-3.193,0-5.734-1.023-7.598-3.071
		c-1.824-1.974-2.742-4.582-2.742-7.822c0-3.699,1.045-6.551,3.112-8.576c1.921-1.879,4.498-2.824,7.724-2.824
		c3.172,0,5.645,0.988,7.426,2.946C1241.091,2093.092,1241.992,2095.801,1241.992,2099.247"/>
	<path id="path12291" fill="#010101" d="M1256.99,2081.474c-0.67-0.371-1.414-0.56-2.261-0.56c-2.383,0-3.565,1.5-3.565,4.506v3.278
		h4.982v2.882h-4.982v18.381h-3.406v-18.381h-3.617v-2.882h3.617v-3.447c0-2.34,0.716-4.177,2.174-5.5
		c1.248-1.149,2.776-1.721,4.594-1.721c1.051,0,1.871,0.126,2.465,0.371V2081.474L1256.99,2081.474z"/>
	<path id="path12295" fill="#010101" d="M1270.422,2109.747c-0.803,0.46-1.875,0.688-3.197,0.688c-3.711,0-5.565-2.091-5.565-6.274
		v-12.577h-3.647v-2.887h3.647v-5.188c1.087-0.344,2.218-0.718,3.411-1.104v6.29h5.352v2.887h-5.352v11.999
		c0,1.426,0.232,2.446,0.721,3.036c0.492,0.61,1.297,0.91,2.43,0.91c0.848,0,1.58-0.227,2.201-0.686v2.902V2109.747
		L1270.422,2109.747z"/>
	<path id="path12299" fill="#010101" d="M1086.441,2192.945c0,1.667-0.595,3.108-1.797,4.325c-1.197,1.214-2.651,1.824-4.356,1.824
		c-1.667,0-3.085-0.61-4.247-1.824c-1.162-1.217-1.74-2.658-1.74-4.325c0-1.713,0.578-3.158,1.74-4.355
		c1.162-1.201,2.58-1.797,4.247-1.797c1.705,0,3.16,0.604,4.356,1.82C1085.845,2189.83,1086.441,2191.275,1086.441,2192.945"/>
	<path id="path12303" fill="#010101" d="M1162.643,2197.843h-11.101l-40.292-62.224c-0.94-1.497-1.752-3.124-2.441-4.901h-0.332
		c0.287,1.667,0.434,5.243,0.434,10.723v56.402h-9.151v-78.067h11.877l39.086,61.243c1.556,2.432,2.619,4.172,3.16,5.221h0.217
		c-0.363-2.247-0.551-6.075-0.551-11.479v-54.984h9.095L1162.643,2197.843L1162.643,2197.843z"/>
	<path id="path12307" fill="#010101" d="M1221.304,2197.843h-41.375v-78.067h39.578v8.271h-30.436v25.97h28.203v8.277h-28.203
		v27.273h32.232V2197.843L1221.304,2197.843z"/>
	<path id="path12311" fill="#010101" d="M1284.064,2128.049h-22.488v69.795h-9.146v-69.795h-22.531v-8.276h54.166V2128.049
		L1284.064,2128.049z"/>
	
		<linearGradient id="path12339_1_" gradientUnits="userSpaceOnUse" x1="1879.8561" y1="-1.8369" x2="1880.6368" y2="-1.8369" gradientTransform="matrix(0 149.7346 -149.7346 0 906.5133 -279513.125)">
		<stop  offset="0" style="stop-color:#2693D1"/>
		<stop  offset="0.35" style="stop-color:#68CEF4"/>
		<stop  offset="0.35" style="stop-color:#68CEF4"/>
		<stop  offset="0.8462" style="stop-color:#277BBF"/>
		<stop  offset="0.8462" style="stop-color:#277BBF"/>
		<stop  offset="1" style="stop-color:#277BBF"/>
	</linearGradient>
	<path id="path12339" fill="url(#path12339_1_)" d="M1159.54,1984.936c8.827,26.994,12.171,75.148,37.984,75.148l0,0
		c1.965,0,3.95-0.191,5.944-0.571l0,0c-23.465-5.472-26.246-53.102-40.564-77.768l0,0
		C1161.781,1982.766,1160.666,1983.829,1159.54,1984.936"/>
	
		<linearGradient id="path12367_1_" gradientUnits="userSpaceOnUse" x1="1879.7838" y1="-1.7959" x2="1880.5641" y2="-1.7959" gradientTransform="matrix(0 153.5506 -153.5506 0 910.2946 -286678.4375)">
		<stop  offset="0" style="stop-color:#1377BC"/>
		<stop  offset="0.36" style="stop-color:#3DADE2"/>
		<stop  offset="0.36" style="stop-color:#3DADE2"/>
		<stop  offset="0.8462" style="stop-color:#2DABE2"/>
		<stop  offset="0.8462" style="stop-color:#2DABE2"/>
		<stop  offset="1" style="stop-color:#2DABE2"/>
	</linearGradient>
	<path id="path12367" fill="url(#path12367_1_)" d="M1162.904,1981.745c14.317,24.666,17.1,72.296,40.563,77.768l0,0
		c1.843-0.339,3.69-0.851,5.542-1.497l0,0c-21.063-10.32-26.884-56.572-43.144-78.839l0,0
		C1164.881,1979.997,1163.892,1980.856,1162.904,1981.745"/>
	<path id="path12379" fill="#14569B" d="M1183.533,1967.076c-1.961,0-3.95,0.192-5.947,0.571
		c-5.222,0.985-10.528,3.234-15.877,6.637c1.46,1.441,2.851,3.092,4.159,4.893c5.44-4.515,10.843-7.851,16.229-9.856
		c2.021-0.749,4.033-1.311,6.054-1.682C1186.693,1967.269,1185.156,1967.076,1183.533,1967.076"/>
	
		<linearGradient id="path12459_1_" gradientUnits="userSpaceOnUse" x1="1873.0719" y1="1.0723" x2="1873.8518" y2="1.0723" gradientTransform="matrix(0 -122.178 122.178 0 1079.0446 230905.5938)">
		<stop  offset="0" style="stop-color:#2865B0"/>
		<stop  offset="0.5" style="stop-color:#3FBCED"/>
		<stop  offset="1" style="stop-color:#3FBCED;stop-opacity:0.4196"/>
	</linearGradient>
	<path id="path12459" fill="url(#path12459_1_)" d="M1225.451,2048.503c2.156-1.713,4.314-3.607,6.477-5.676
		c-8.969-26.868-12.18-75.711-38.174-75.711c-1.859,0-3.733,0.173-5.604,0.52
		C1211.825,1973.524,1214.859,2025.038,1225.451,2048.503"/>
	<path id="path12521" fill="#3292C4" d="M1188.15,1967.638c-1.458-0.37-2.994-0.563-4.617-0.563l10.223,0.038
		c-1.859,0-3.735,0.173-5.605,0.524"/>
	<path id="path12525" fill="#266AB4" d="M1224.996,2054.211c-1.015-0.969-1.98-2.032-2.93-3.167
		c-4.373,3.096-8.729,5.443-13.058,6.973c1.54,0.752,3.156,1.313,4.869,1.658c1.327,0.271,2.702,0.41,4.148,0.41
		c4.855,0,8.696-0.576,11.966-2.144C1228.191,2056.969,1226.542,2055.709,1224.996,2054.211"/>
	
		<linearGradient id="path12553_1_" gradientUnits="userSpaceOnUse" x1="1879.692" y1="-1.7168" x2="1880.4728" y2="-1.7168" gradientTransform="matrix(0 159.4252 -159.4252 0 930.1071 -297719.0625)">
		<stop  offset="0" style="stop-color:#206BB5"/>
		<stop  offset="0.4" style="stop-color:#3DADE2"/>
		<stop  offset="0.4" style="stop-color:#3DADE2"/>
		<stop  offset="0.8462" style="stop-color:#2397D4"/>
		<stop  offset="0.8462" style="stop-color:#2397D4"/>
		<stop  offset="1" style="stop-color:#2397D4"/>
	</linearGradient>
	<path id="path12553" fill="url(#path12553_1_)" d="M1182.093,1969.326c21.209,11.093,23.053,61.323,39.975,81.718l0,0
		c1.134-0.799,2.256-1.646,3.379-2.54l0,0c-10.591-23.465-13.622-74.983-37.295-80.868l0,0
		C1186.132,1968.013,1184.115,1968.573,1182.093,1969.326"/>
	
		<linearGradient id="path12581_1_" gradientUnits="userSpaceOnUse" x1="1879.5133" y1="-1.6602" x2="1880.2931" y2="-1.6602" gradientTransform="matrix(0 169.5276 -169.5276 0 912.5446 -316677.4688)">
		<stop  offset="0" style="stop-color:#164579"/>
		<stop  offset="0.39" style="stop-color:#1A87C9"/>
		<stop  offset="0.39" style="stop-color:#1A87C9"/>
		<stop  offset="0.7802" style="stop-color:#165297"/>
		<stop  offset="0.7802" style="stop-color:#165297"/>
		<stop  offset="1" style="stop-color:#165297"/>
	</linearGradient>
	<path id="path12581" fill="url(#path12581_1_)" d="M1165.867,1979.177c16.26,22.267,22.081,68.519,43.143,78.839l0,0
		c4.33-1.528,8.687-3.876,13.059-6.972l0,0c-16.922-20.396-18.766-70.626-39.975-81.719l0,0
		C1176.71,1971.327,1171.306,1974.662,1165.867,1979.177"/>
	
		<linearGradient id="path12651_1_" gradientUnits="userSpaceOnUse" x1="2887.8481" y1="2183.1611" x2="2892.479" y2="2183.1611" gradientTransform="matrix(4.0385 0 0 4.0385 -10521.7578 -6824.0752)">
		<stop  offset="0" style="stop-color:#3FBCED;stop-opacity:0.698"/>
		<stop  offset="1" style="stop-color:#20ACD8"/>
	</linearGradient>
	<path id="path12651" fill="url(#path12651_1_)" d="M1149.136,1984.286c-2.548,5.763-5.152,13.338-8.299,23.224
		c6.259-8.819,12.498-16.417,18.702-22.575c-0.854-2.627-1.773-5.049-2.761-7.208
		C1154.241,1979.67,1151.685,1981.856,1149.136,1984.286"/>
	<path id="path12655" fill="#2C75B1" d="M1159.038,1976.066c-0.749,0.535-1.501,1.083-2.257,1.663
		c0.988,2.158,1.903,4.581,2.757,7.208c1.126-1.104,2.246-2.171,3.364-3.191C1161.701,1979.682,1160.424,1977.775,1159.038,1976.066
		"/>
	<path id="path12659" fill="#145B9E" d="M1161.708,1974.284c-0.891,0.563-1.777,1.158-2.671,1.78
		c1.386,1.71,2.662,3.616,3.868,5.685c0.99-0.895,1.978-1.757,2.962-2.572C1164.559,1977.377,1163.17,1975.726,1161.708,1974.284"/>
	
		<linearGradient id="path12741_1_" gradientUnits="userSpaceOnUse" x1="1872.9694" y1="0.9453" x2="1873.7499" y2="0.9453" gradientTransform="matrix(0 -119.0183 119.0183 0 1168.7633 224972.6406)">
		<stop  offset="0" style="stop-color:#166BB5"/>
		<stop  offset="0.6" style="stop-color:#5EC9F4;stop-opacity:0.549"/>
		<stop  offset="1" style="stop-color:#5EC9F4;stop-opacity:0.2353"/>
	</linearGradient>
	<path id="path12741" fill="url(#path12741_1_)" d="M1306.361,1965.02c-11.992,46.255-37.045,83.409-58.049,92.775h-0.039
		c-0.383,0.174-0.76,0.331-1.134,0.484c-0.052,0.031-0.099,0.035-0.14,0.055c-0.109,0.044-0.212,0.078-0.322,0.122
		c-0.051,0.031-0.097,0.041-0.145,0.061c-0.178,0.063-0.352,0.116-0.524,0.186c-0.075,0.031-0.146,0.051-0.218,0.076
		c-0.078,0.031-0.169,0.061-0.26,0.085c-0.078,0.031-0.161,0.054-0.253,0.089c-0.073,0.031-0.151,0.045-0.223,0.076
		c-0.153,0.044-0.297,0.082-0.448,0.135c-0.064,0-0.123,0.035-0.19,0.051c-0.095,0.031-0.2,0.054-0.304,0.083
		c-0.07,0.031-0.129,0.04-0.204,0.057c-0.106,0.031-0.225,0.06-0.331,0.084c-0.141,0.031-0.268,0.061-0.401,0.089
		c0.949,0.351,1.938,0.528,3.005,0.528c19.916,0,39.996-35.691,73.223-95.044h-13.045L1306.361,1965.02z"/>
	
		<linearGradient id="path12803_1_" gradientUnits="userSpaceOnUse" x1="2871.4204" y1="2188.6553" x2="2888.5972" y2="2188.6553" gradientTransform="matrix(4.0385 0 0 4.0385 -10521.7578 -6824.0752)">
		<stop  offset="0" style="stop-color:#269FDA;stop-opacity:0.2471"/>
		<stop  offset="1" style="stop-color:#269FDA"/>
	</linearGradient>
	<path id="path12803" fill="url(#path12803_1_)" d="M1136.512,1968.953c0.012,0,0.028-0.031,0.036-0.031c0.016,0,0.04,0,0.047-0.032
		c0,0,0.016,0,0.025,0c0.111-0.038,0.213-0.082,0.324-0.122c0.028,0,0.042,0,0.063-0.032c0.029,0,0.056-0.031,0.083-0.035
		c0.119-0.038,0.237-0.083,0.347-0.123c0,0,0.013,0,0.019,0c0.264-0.079,0.508-0.177,0.765-0.268c0.036,0,0.07-0.031,0.115-0.031
		c0.105-0.034,0.216-0.072,0.326-0.098c0.051-0.031,0.102-0.031,0.149-0.048c0.116-0.034,0.225-0.072,0.331-0.098
		c0.048,0,0.091-0.031,0.126-0.034c0.366-0.101,0.729-0.195,1.095-0.283c0.051,0,0.094-0.032,0.15-0.035
		c0.106-0.031,0.205-0.048,0.318-0.063c0.048-0.031,0.103-0.031,0.159-0.048c0.105-0.032,0.208-0.035,0.323-0.06
		c0.027,0,0.042,0,0.075,0c0.22-0.045,0.444-0.082,0.665-0.123c0.04,0,0.09,0,0.134,0c0.106-0.031,0.201-0.035,0.307-0.053
		c0.059,0,0.117-0.031,0.173-0.031c0.098,0,0.197-0.031,0.296-0.045c0.051,0,0.102,0,0.161-0.031
		c0.232-0.031,0.474-0.043,0.717-0.064c-0.689-0.066-1.397-0.11-2.119-0.11c-22.429,0-53.33,41.615-67.251,95.508
		c0,0,1.017,0,2.683,0c4.454-7.944,8.456-15.46,12.116-22.514c9.749-38.173,29.605-64.207,47.244-71.103"/>
	<path id="path12807" fill="#1C82C5" d="M1149.137,1984.286c2.548-2.43,5.104-4.616,7.641-6.559
		c-0.58-1.268-1.177-2.442-1.819-3.517C1152.907,1976.699,1151.031,1979.984,1149.137,1984.286"/>
	<path id="path12811" fill="#1C82C5" d="M1150.98,1969.268c1.465,1.229,2.776,2.919,3.978,4.944
		c0.378-0.464,0.761-0.895,1.159-1.296c-1.667-1.556-3.466-2.833-5.419-3.793c0.078,0.043,0.156,0.078,0.239,0.114
		C1150.936,1969.237,1150.967,1969.269,1150.98,1969.268"/>
	
		<linearGradient id="path12831_1_" gradientUnits="userSpaceOnUse" x1="1873.0621" y1="1.3022" x2="1873.8424" y2="1.3022" gradientTransform="matrix(0 -121.8652 121.8652 0 954.2008 230318.3281)">
		<stop  offset="0" style="stop-color:#3A8ECC"/>
		<stop  offset="1" style="stop-color:#40A6DD"/>
	</linearGradient>
	<path id="path12831" fill="url(#path12831_1_)" d="M1089.269,2040.055c20.45-39.41,30.141-64.352,47.244-71.103l0,0
		C1118.877,1975.853,1099.017,2001.886,1089.269,2040.055"/>
	<path id="path12843" fill="#277BBF" d="M1156.114,1972.916c-0.398,0.405-0.776,0.831-1.159,1.296
		c0.642,1.075,1.24,2.245,1.825,3.517c0.756-0.579,1.507-1.126,2.255-1.663C1158.112,1974.924,1157.134,1973.865,1156.114,1972.916"
		/>
	
		<linearGradient id="path12923_1_" gradientUnits="userSpaceOnUse" x1="1872.9586" y1="1.3389" x2="1873.7391" y2="1.3389" gradientTransform="matrix(0 -118.4596 118.4596 0 960.2008 223927.5781)">
		<stop  offset="0" style="stop-color:#269FDA"/>
		<stop  offset="1" style="stop-color:#269FDA;stop-opacity:0.549"/>
	</linearGradient>
	<path id="path12923" fill="url(#path12923_1_)" d="M1098.552,2062.393L1098.552,2062.393c-0.126,0.031-0.251,0.031-0.37,0.045
		c-0.04,0-0.048,0-0.071,0c-0.107,0-0.217,0.031-0.315,0.031c0,0-0.039,0-0.051,0c-0.256,0.031-0.508,0.031-0.751,0.051h-0.08
		c20.7-0.579,30.161-10.943,34.856-25.975c3.569-11.396,6.499-20.995,9.068-29.05c-8.67,12.203-17.379,26.75-26.135,43.045
		c-4.223,7.855-10.644,11.136-16.15,11.838"/>
	
		<linearGradient id="path12949_1_" gradientUnits="userSpaceOnUse" x1="1872.2819" y1="1.6621" x2="1873.0621" y2="1.6621" gradientTransform="matrix(0 -100.1002 100.1002 0 957.4352 189478.1875)">
		<stop  offset="0" style="stop-color:#1B5BA6"/>
		<stop  offset="0.5" style="stop-color:#269FDA"/>
		<stop  offset="0.5" style="stop-color:#269FDA"/>
		<stop  offset="0.9176" style="stop-color:#7FC5E9"/>
		<stop  offset="1" style="stop-color:#7FC5E9"/>
	</linearGradient>
	<path id="path12949" fill="url(#path12949_1_)" d="M1098.552,2062.385L1098.552,2062.385c5.506-0.702,11.928-3.979,16.15-11.837
		l0,0c8.756-16.292,17.469-30.843,26.131-43.045l0,0c3.151-9.891,5.751-17.461,8.304-23.224l0,0
		c-17.265,16.434-34.597,43.759-50.585,78.1"/>
	<path id="path12961" fill="#269FDA" d="M1089.267,2040.056c-3.659,7.055-7.661,14.57-12.116,22.515c1.926,0,4.715,0,7.803,0
		c1.033-7.89,2.498-15.413,4.314-22.512"/>
	
		<linearGradient id="path12981_1_" gradientUnits="userSpaceOnUse" x1="1872.3971" y1="0.7251" x2="1873.1774" y2="0.7251" gradientTransform="matrix(-19.138 -108.5369 108.5369 -19.138 36882.0742 205295.5313)">
		<stop  offset="0" style="stop-color:#165196"/>
		<stop  offset="1" style="stop-color:#1C82C5"/>
	</linearGradient>
	<path id="path12981" fill="url(#path12981_1_)" d="M1143.122,1967.25c-0.064,0-0.111,0.031-0.166,0.031l0,0
		c-0.094,0.031-0.193,0.031-0.292,0.041l0,0c-0.059,0-0.114,0-0.173,0.032l0,0c-0.106,0.031-0.204,0.034-0.307,0.054l0,0
		c-0.047,0-0.094,0-0.134,0.031l0,0c-0.225,0.038-0.445,0.078-0.665,0.117l0,0c-0.039,0-0.052,0-0.076,0l0,0
		c-0.114,0.031-0.216,0.047-0.322,0.063l0,0c-0.055,0.031-0.11,0.031-0.162,0.044l0,0c-0.107,0.031-0.213,0.045-0.315,0.063l0,0
		c-0.056,0.031-0.098,0.031-0.149,0.034l0,0c-0.366,0.089-0.729,0.183-1.095,0.284l0,0c-0.039,0-0.079,0.031-0.125,0.038l0,0
		c-0.111,0.031-0.218,0.063-0.331,0.098l0,0c-0.048,0.031-0.103,0.031-0.151,0.043l0,0c-0.109,0.031-0.219,0.063-0.326,0.098l0,0
		c-0.042,0-0.079,0.031-0.118,0.031l0,0c-0.251,0.094-0.5,0.19-0.761,0.268l0,0l0,0l0,0c-0.11,0.034-0.228,0.079-0.345,0.12l0,0
		c-0.049,0.031-0.092,0.038-0.146,0.06l0,0c-0.11,0.035-0.221,0.078-0.323,0.119l0,0c-0.04,0.031-0.079,0.035-0.107,0.051l0,0
		c-17.103,6.751-26.793,31.693-47.244,71.104l0,0c-1.816,7.098-3.286,14.621-4.313,22.511l0,0h1.095
		c3.084,0,3.955-0.031,7.504-0.031l0,0h0.182h0.527h0.182h0.051h0.181h0.103h0.071h0.142h0.441h0.441h0.371h0.097
		c0.213,0,0.43,0,0.65,0l0,0c0.245-0.031,0.496-0.031,0.752-0.051l0,0c0,0,0.04,0,0.047,0l0,0c0.107,0,0.213-0.031,0.316-0.031l0,0
		c0.039,0,0.042,0,0.074,0l0,0c0.113,0,0.244-0.031,0.37-0.045l0,0l0,0c15.989-34.34,33.32-61.664,50.584-78.098l0,0
		c1.898-4.301,3.77-7.586,5.818-10.071l0,0c-1.198-2.025-2.51-3.719-3.974-4.947l0,0c0,0-0.04,0-0.044-0.031l0,0
		c-0.082-0.035-0.161-0.077-0.244-0.117l0,0c-0.084-0.045-0.154-0.079-0.24-0.124l0,0c-0.075-0.031-0.162-0.072-0.237-0.114l0,0
		c-0.103-0.031-0.185-0.076-0.275-0.117l0,0c-0.074-0.031-0.142-0.063-0.218-0.094l0,0c-0.153-0.06-0.308-0.123-0.453-0.189l0,0
		c-0.067-0.031-0.129-0.047-0.193-0.072l0,0c-0.107-0.038-0.228-0.088-0.339-0.136l0,0c-0.055-0.031-0.118-0.037-0.181-0.061l0,0
		c-0.161-0.053-0.319-0.11-0.469-0.16l0,0c-0.038,0-0.038,0-0.038,0l0,0c-0.181-0.06-0.359-0.104-0.544-0.155l0,0
		c-0.042-0.031-0.079-0.031-0.122-0.038l0,0c-0.162-0.044-0.303-0.088-0.456-0.129l0,0c-0.04,0-0.075-0.031-0.106-0.031l0,0
		c-0.37-0.098-0.752-0.177-1.138-0.25l0,0c-0.04,0-0.08-0.031-0.117-0.031l0,0c-0.167-0.031-0.327-0.06-0.494-0.078l0,0
		c-0.04-0.031-0.063-0.031-0.098-0.031l0,0c-0.196-0.031-0.389-0.054-0.584-0.076l0,0c-0.038,0-0.066,0-0.101,0l0,0
		c-0.159-0.031-0.303-0.034-0.449-0.05l0,0c-0.249,0.031-0.484,0.044-0.717,0.066"/>
	
		<linearGradient id="path13003_1_" gradientUnits="userSpaceOnUse" x1="1868.6305" y1="2.6123" x2="1869.4109" y2="2.6123" gradientTransform="matrix(0 -56.7206 56.7206 0 1117.2477 107999.3906)">
		<stop  offset="0" style="stop-color:#269FDA"/>
		<stop  offset="0.8736" style="stop-color:#1495D3"/>
		<stop  offset="1" style="stop-color:#1495D3"/>
	</linearGradient>
	<path id="path13003" fill="url(#path13003_1_)" d="M1259.511,1990.628c-3.936,12.604-7.121,23.004-9.895,31.559l0,0
		c10.797-14.858,21.434-33.548,31.559-55.118l0,0C1269.363,1970.779,1263.06,1979.271,1259.511,1990.628"/>
	
		<linearGradient id="path13093_1_" gradientUnits="userSpaceOnUse" x1="1879.9918" y1="-2.3828" x2="1880.7722" y2="-2.3828" gradientTransform="matrix(-23.0627 130.7947 -130.7947 -23.0627 44332.1992 -243986.4531)">
		<stop  offset="0" style="stop-color:#40A6DD;stop-opacity:0.3294"/>
		<stop  offset="0.9615" style="stop-color:#2687C8"/>
		<stop  offset="0.9615" style="stop-color:#2687C8"/>
		<stop  offset="1" style="stop-color:#2687C8"/>
	</linearGradient>
	<path id="path13093" fill="url(#path13093_1_)" d="M1249.96,2057.009c-0.552,0.28-1.103,0.546-1.647,0.787
		c21.004-9.367,46.057-46.52,58.051-92.775h-2.432C1276.375,2014.246,1267.513,2047.2,1249.96,2057.009"/>
	<path id="path13097" fill="#2A98D5" d="M1236.244,2052.872c4.57-5.577,8.291-15.059,13.374-30.686
		c-5.86,8.052-11.763,14.973-17.665,20.618c0,0.031,0,0.031-0.033,0.05c1.289,3.86,2.703,7.267,4.313,10.016"/>
	<path id="path13101" fill="#266AB4" d="M1236.244,2052.872c-1.555,1.898-3.201,3.345-5.033,4.416
		c-0.402,0.232-0.807,0.453-1.223,0.653c1.936,1.043,4.047,1.741,6.41,2.021l0,0l0,0c0.347,0.034,0.689,0.065,1.048,0.091h0.063
		c0.161,0,0.33,0,0.504,0.031h0.07c0.172,0,0.348,0,0.516,0c0.187,0,0.371,0,0.557,0c0.059,0,0.115,0,0.173,0
		c0.126,0,0.261,0,0.393,0c0.063,0,0.131,0,0.192-0.031c0.123,0,0.253,0,0.379-0.031c0.031,0,0.031,0,0.044,0
		c0.052,0,0.095,0,0.143,0c0.13,0,0.271-0.031,0.409-0.045h0.031c0.041,0,0.086-0.031,0.125-0.031
		c0.146-0.031,0.297-0.044,0.438-0.066c0.048,0,0.082,0,0.13,0c0.16-0.031,0.326-0.05,0.491-0.082h0.032c0.031,0,0.033,0,0.047,0
		c0.33-0.063,0.654-0.125,0.98-0.208c-2.709-0.992-4.979-3.332-6.932-6.664"/>
	<path id="path13105" fill="#295EAC" d="M1197.524,2060.085c1.965,0,3.95-0.192,5.944-0.575c1.844-0.335,3.69-0.847,5.543-1.493
		c1.539,0.752,3.154,1.313,4.863,1.658c1.328,0.271,2.707,0.41,4.152,0.41H1197.524L1197.524,2060.085z"/>
	<path id="path13109" fill="#295EAC" d="M1218.027,2060.085c4.854,0,8.697-0.575,11.961-2.143c1.936,1.044,4.047,1.741,6.41,2.021
		l0,0l0,0c0.348,0.034,0.69,0.066,1.048,0.092h0.063c0.161,0,0.33,0,0.506,0.031h0.071c0.173,0,0.347,0,0.517,0h-20.59
		L1218.027,2060.085z"/>
	<path id="path13113" fill="#2862AE" d="M1238.615,2060.085c0.189,0,0.375,0,0.559,0c0.055,0,0.117,0,0.175,0
		c0.126,0,0.255,0,0.39,0c0.066,0,0.129,0,0.191-0.031c0.123,0,0.254,0,0.383-0.031c0.03,0,0.03,0,0.041,0c0.05,0,0.098,0,0.145,0
		c0.129,0,0.271-0.031,0.406-0.044c0,0,0.031,0,0.035,0c0.041,0,0.081-0.031,0.121-0.031c0.145-0.031,0.297-0.045,0.437-0.066
		c0.049,0,0.086,0,0.136-0.031c0.161-0.031,0.326-0.048,0.494-0.079h0.031c0.031,0,0.033,0,0.047,0
		c0.33-0.063,0.654-0.126,0.98-0.208l0,0c0.949,0.352,1.938,0.528,3.006,0.528l-7.57,0.031L1238.615,2060.085z"/>
	<path id="path13117" fill="#1D60AB" d="M1231.933,2042.855v-0.031c-2.162,2.068-4.32,3.962-6.477,5.676
		c-1.126,0.894-2.248,1.741-3.383,2.54c0.949,1.135,1.914,2.198,2.93,3.167c1.545,1.496,3.195,2.758,4.996,3.73
		c0.408-0.201,0.819-0.422,1.217-0.654c1.835-1.071,3.481-2.517,5.037-4.415c-1.61-2.749-3.026-6.156-4.313-10.018"/>
	
		<linearGradient id="path13139_1_" gradientUnits="userSpaceOnUse" x1="1880.5211" y1="-1.917" x2="1881.3011" y2="-1.917" gradientTransform="matrix(0 123.7424 -123.7424 0 1032.8258 -230735.3906)">
		<stop  offset="0" style="stop-color:#258BCC"/>
		<stop  offset="0.5" style="stop-color:#2487C9"/>
		<stop  offset="1" style="stop-color:#164C8D"/>
	</linearGradient>
	<path id="path13139" fill="url(#path13139_1_)" d="M1296.234,1965.02h-10.217c-0.344,0-0.682,0-1.018,0l0,0
		c-0.326,0-0.641,0-0.959,0l0,0h-0.039c-0.66,0.031-1.305,0.054-1.938,0.095l0,0c-0.299,0.642-0.607,1.285-0.902,1.931l0,0
		c-10.127,21.569-20.763,40.26-31.559,55.118l0,0c-5.077,15.627-8.804,25.108-13.372,30.686l0,0
		c1.953,3.332,4.225,5.675,6.929,6.669l0,0c0.078-0.032,0.143-0.032,0.212-0.049l0,0c0,0,0.04,0,0.044,0l0,0
		c0.048,0,0.098-0.031,0.15-0.031l0,0c0.109-0.031,0.227-0.05,0.338-0.085l0,0c0.07-0.031,0.129-0.034,0.201-0.057l0,0
		c0.102-0.031,0.208-0.054,0.303-0.079l0,0c0.063-0.031,0.126-0.041,0.188-0.054l0,0c0.158-0.051,0.3-0.088,0.449-0.135l0,0
		c0.07-0.031,0.146-0.058,0.226-0.076l0,0c0.087-0.031,0.172-0.054,0.251-0.091l0,0c0.091-0.031,0.182-0.048,0.26-0.083l0,0
		c0.07-0.031,0.146-0.051,0.214-0.078l0,0c0.177-0.063,0.351-0.117,0.527-0.186l0,0c0.047,0,0.095-0.045,0.146-0.055l0,0
		c0.105-0.045,0.215-0.078,0.321-0.126l0,0c0.04-0.03,0.089-0.034,0.139-0.051l0,0c0.371-0.154,0.752-0.312,1.134-0.483l0,0h0.041
		l0,0c0.541-0.24,1.094-0.509,1.642-0.788l0,0c17.556-9.809,26.419-42.763,53.978-91.988l0,0h-7.697L1296.234,1965.02z"/>
	<path id="path13231" fill="#7ECBEB" d="M1143.839,1967.184c0.044,0,0.083,0,0.126,0.032c0.105,0,0.213,0,0.318,0.034
		c0.041,0,0.076,0,0.107,0c0.192,0.031,0.386,0.048,0.583,0.076c0.035,0,0.067,0,0.098,0.031c0.162,0.031,0.326,0.057,0.493,0.082
		c0.036,0,0.083,0.032,0.122,0.032c0.378,0.075,0.765,0.154,1.135,0.251c0.035,0,0.071,0.031,0.102,0.031
		c0.157,0.039,0.299,0.085,0.457,0.13c0.047,0,0.083,0.031,0.126,0.039c0.185,0.048,0.358,0.094,0.539,0.155
		c0.009,0,0.02,0,0.041,0.031c0.153,0.046,0.311,0.106,0.473,0.16c0.063,0.032,0.121,0.045,0.181,0.06
		c0.11,0.048,0.232,0.094,0.338,0.139c0.063,0,0.127,0.044,0.193,0.066c0.146,0.066,0.3,0.126,0.449,0.19
		c0.08,0.032,0.146,0.066,0.222,0.094c0.087,0.045,0.177,0.085,0.272,0.117c0.079,0.038,0.167,0.078,0.241,0.112
		c0.083,0.045,0.161,0.08,0.241,0.124c1.953,0.961,3.753,2.241,5.42,3.793c0.614-0.647,1.256-1.226,1.922-1.745
		c-3.644-2.584-7.771-4.058-12.534-4.058c-0.552,0-1.103,0.031-1.661,0.073"/>
	<path id="path13235" fill="#61C5EC" d="M1156.114,1972.916c1.02,0.949,1.997,2.008,2.922,3.15c0.896-0.623,1.782-1.221,2.671-1.78
		c-1.166-1.167-2.396-2.214-3.675-3.117C1157.367,1971.687,1156.729,1972.269,1156.114,1972.916"/>
	<g id="g13243" transform="matrix(5.0481458,0,0,-5.0481458,-9064.2597,2270.6096)">
		
			<linearGradient id="path13245_1_" gradientUnits="userSpaceOnUse" x1="2374.3896" y1="-14.8447" x2="2375.1704" y2="-14.8447" gradientTransform="matrix(143.8888 -59.6807 -59.6807 -143.8888 -340511.3125 139630.2188)">
			<stop  offset="0" style="stop-color:#98D5ED"/>
			<stop  offset="0.7033" style="stop-color:#58C1EA"/>
			<stop  offset="1" style="stop-color:#58C1EA"/>
		</linearGradient>
		<path id="path13245" fill="url(#path13245_1_)" d="M2022.148,60.107c0.111,0.009,0.22,0.013,0.329,0.013
			c0.943,0,1.761-0.292,2.483-0.803c0.761,0.601,1.682,0.811,2.961,0.811h-6.193C2021.871,60.128,2022.011,60.119,2022.148,60.107"
			/>
	</g>
	<g id="g13253" transform="matrix(5.0481458,0,0,-5.0481458,-9064.2597,2270.6096)">
		
			<linearGradient id="path13255_1_" gradientUnits="userSpaceOnUse" x1="2373.9045" y1="-14.4837" x2="2374.6838" y2="-14.4837" gradientTransform="matrix(113.6429 51.5183 51.5183 -113.6429 -267005.8125 -123886.8438)">
			<stop  offset="0" style="stop-color:#7BCCEB"/>
			<stop  offset="1" style="stop-color:#48B6E8"/>
		</linearGradient>
		<path id="path13255" fill="url(#path13255_1_)" d="M2027.922,60.128c-1.279,0-2.199-0.21-2.961-0.811
			c0.253-0.179,0.496-0.386,0.727-0.617c1.061,0.674,2.111,1.121,3.146,1.315c0.395,0.074,0.789,0.112,1.177,0.112H2027.922z"/>
	</g>
	
		<linearGradient id="path13333_1_" gradientUnits="userSpaceOnUse" x1="1880.5947" y1="-1.9785" x2="1881.375" y2="-1.9785" gradientTransform="matrix(0 121.0325 -121.0325 0 1017.5762 -225643)">
		<stop  offset="0" style="stop-color:#2DA6DE"/>
		<stop  offset="1" style="stop-color:#3EAAE0;stop-opacity:0"/>
	</linearGradient>
	<path id="path13333" fill="url(#path13333_1_)" d="M1249.617,2022.194c2.777-8.563,5.957-18.958,9.898-31.567
		c3.555-11.36,9.846-19.853,21.658-23.559c0.313-0.634,0.605-1.289,0.91-1.93c-19.26,1.154-28.26,10.95-32.789,25.458
		c-7.922,25.328-12.719,41.745-17.34,52.208C1237.855,2037.162,1243.756,2030.238,1249.617,2022.194"/>
</g>
</svg>
