<?xml version="1.0" encoding="utf-8"?>
<!-- Generator: Adobe Illustrator 16.0.0, SVG Export Plug-In . SVG Version: 6.00 Build 0)  -->
<!DOCTYPE svg PUBLIC "-//W3C//DTD SVG 1.1//EN" "http://www.w3.org/Graphics/SVG/1.1/DTD/svg11.dtd">
<svg version="1.1" id="Layer_1" xmlns="http://www.w3.org/2000/svg" xmlns:xlink="http://www.w3.org/1999/xlink" x="0px" y="0px"
	 width="5669.29px" height="4251.971px" viewBox="0 0 5669.29 4251.971" enable-background="new 0 0 5669.29 4251.971"
	 xml:space="preserve">
<path fill-rule="evenodd" clip-rule="evenodd" fill="#1C2028" d="M2201.383,1640.914c14.557,49.769,34.721,97.942,60.252,143.042
	l-72.752,91.708c-23.745,29.965-21.027,72.778,5.623,99.748l125.325,125.284c26.996,27.021,69.742,29.383,99.778,5.626
	l91.123-72.118c46.89,27.022,96.722,48.125,148.747,62.88l13.641,117.349c4.459,37.956,36.515,66.518,74.486,66.518h177.334
	c37.956,0,69.989-28.562,74.479-66.518l13.031-113.152c55.824-14.466,109.252-36.181,159.416-64.476l88.156,69.783
	c29.961,23.783,72.775,21.128,99.771-5.521l125.257-125.336c27.102-27.022,29.467-69.73,5.631-99.778l-68.563-87.008
	c28.504-49.262,50.86-101.82,65.664-156.682l105.672-12.132c37.986-4.485,66.491-36.631,66.491-74.64v-177.203
	c0-37.968-28.505-70.035-66.491-74.468l-104.237-12.169c-14.226-54.322-35.562-106.347-62.933-155.038l64.104-81.025
	c23.783-29.979,21.104-72.741-5.631-99.774l-124.964-124.979c-26.995-27.007-69.81-29.436-99.771-5.679l-78.652,62.388
	c-51.012-29.98-105.746-52.794-163.026-68.281l-11.892-101.794c-4.437-38.009-36.47-66.491-74.426-66.491h-177.312
	c-37.941,0-70.035,28.482-74.494,66.491l-11.891,101.794c-58.781,15.753-114.875,39.469-167.103,70.631l-81.618-64.738
	c-30.036-23.756-72.782-21.035-99.778,5.679l-125.325,125.284c-26.966,26.98-29.368,69.783-5.623,99.841l68.331,86.348
	c-27.334,49.198-48.144,101.779-61.792,156.458l-109.222,12.451c-38.009,4.485-66.536,36.522-66.536,74.479v177.256
	c0,38.009,28.527,70.102,66.536,74.509L2201.383,1640.914L2201.383,1640.914z M2839.816,1039.525
	c232.783,0,421.371,188.746,421.371,421.401c0,232.783-188.588,421.453-421.371,421.453c-232.745,0-421.4-188.67-421.4-421.453
	C2418.416,1228.271,2607.071,1039.525,2839.816,1039.525L2839.816,1039.525z"/>
<path fill-rule="evenodd" clip-rule="evenodd" fill="#1D2128" d="M2839.816,1075.702c212.769,0,385.193,172.53,385.193,385.224
	c0,212.769-172.425,385.22-385.193,385.22c-212.723,0-385.201-172.451-385.201-385.22
	C2454.616,1248.232,2627.093,1075.702,2839.816,1075.702L2839.816,1075.702z M2839.816,1201.808
	c143.095,0,259.059,115.956,259.059,259.118c0,143.094-115.964,259.088-259.059,259.088c-143.109,0-259.08-115.994-259.08-259.088
	C2580.736,1317.764,2696.707,1201.808,2839.816,1201.808L2839.816,1201.808z"/>
<path fill-rule="evenodd" clip-rule="evenodd" fill="#6D737F" d="M2578.326,3842.834
	c19.039,126.185,126.849,223.309,258.412,223.309c131.436,0,239.472-97.124,258.473-223.309
	c172.027-10.086,308.808-151.563,308.808-326.164H2268.843C2268.843,3691.351,2405.992,3832.932,2578.326,3842.834
	L2578.326,3842.834z"/>
<path fill-rule="evenodd" clip-rule="evenodd" fill="#6D737F" d="M4077.578,1436.741c0-683.739-554.061-1237.882-1237.656-1237.882
	c-683.77,0-1237.897,554.143-1237.897,1237.882c0,288.392,99.147,553.189,264.823,763.438
	c145.242,184.234,282.818,385.329,401.957,587.771v653.681h1135.162v-642.795c118.117-196.794,270.761-423.552,408.735-598.525
	C3978.49,1990.114,4077.578,1725.4,4077.578,1436.741L4077.578,1436.741z M2839.816,515.813
	c529.691,0,959.005,429.362,959.005,959.072c0,529.643-429.313,959.009-959.005,959.009c-529.699,0-959.035-429.366-959.035-959.009
	C1880.782,945.175,2310.117,515.813,2839.816,515.813L2839.816,515.813z"/>
<path fill-rule="evenodd" clip-rule="evenodd" fill="#F16835" d="M2839.869,1300.523c88.547,0,160.398,71.799,160.398,160.402
	c0,88.6-71.852,160.451-160.398,160.451c-88.66,0-160.458-71.851-160.458-160.451
	C2679.411,1372.322,2751.209,1300.523,2839.869,1300.523L2839.869,1300.523z"/>
</svg>
