<svg xmlns="http://www.w3.org/2000/svg" xmlns:xlink="http://www.w3.org/1999/xlink" version="1.1" width="348.7012986691291" height="234.10389600738665" xml:space="preserve"><rect id="backgroundrect" width="100%" height="100%" x="0" y="0" fill="none" stroke="none" class=""/>
















<g class="currentLayer"><title>Layer 1</title><g id="svg_1" class="">
	<g id="svg_2">
		<g id="svg_3">
			<g id="svg_4">
				<path d="M287.0397532157898,125.70219521236419 c-30.366,-29.777 -70.557,-46.17 -113.208,-46.17 c-43.216,0 -83.797,16.781 -114.265,47.258 c-1.556,1.549 -2.414,3.6270000000000002 -2.414,5.8420000000000005 c0,2.216 0.8650000000000008,4.2940000000000005 2.432,5.843 l31.79,31.796 c3.128,3.128 8.563,3.128 11.673,-0.012000000000000012 c18.879,-18.873 44.021,-29.268 70.803,-29.268 c26.764,0 51.911,10.395 70.803,29.279 c1.5550000000000002,1.5550000000000002 3.633,2.42 5.83,2.42 c2.21,0 4.2940000000000005,-0.8650000000000008 5.843,-2.432 l31.916,-31.904 c3.218,-3.23 3.236,-8.479 0.012000000000000012,-11.679 L287.0397532157898,125.70219521236419 z" fill="#FFFFFF" id="svg_5"/>
			</g>
		</g>
		<g id="svg_6">
			<g id="svg_7">
				<path d="M344.6197532157898,70.2841952123642 l-1.255,-0.9670000000000006 c-45.042,-44.474 -104.802,-68.965 -168.303,-68.965 c-64.065,0 -124.233,24.884 -169.407,70.061 c-3.219,3.221 -3.207,8.473 0.012000000000000012,11.707 l32.714,32.714 c3.134,3.122 8.557,3.116 11.685,-0.009000000000000022 c33.327,-33.333 77.714,-51.681 124.996,-51.681 c47.275,0 91.669,18.354 125.014,51.695 c1.556,1.556 3.6390000000000002,2.414 5.831,2.414 c2.216,0 4.293,-0.8580000000000008 5.843,-2.414 l32.84,-32.843 c1.5670000000000002,-1.562 2.438,-3.657 2.438,-5.891 C347.0337532157898,73.89919521236419 346.1687532157898,71.8271952123642 344.6197532157898,70.2841952123642 z" fill="#FFFFFF" id="svg_8"/>
			</g>
		</g>
		<g id="svg_9">
			<g id="svg_10">
				<path d="M173.1107532157898,164.7161952123642 c-16.585,0 -32.504,5.488 -47.3,16.279 l-4.474,3.2720000000000002 l52.085,48.771 l53.629,-47.99 l-4.167,-3.387 C222.0437532157898,180.9651952123642 201.7057532157898,164.7161952123642 173.1107532157898,164.7161952123642 z" fill="#FFFFFF" id="svg_11"/>
			</g>
		</g>
	</g>
</g><g id="svg_12">
</g><g id="svg_13">
</g><g id="svg_14">
</g><g id="svg_15">
</g><g id="svg_16">
</g><g id="svg_17">
</g><g id="svg_18">
</g><g id="svg_19">
</g><g id="svg_20">
</g><g id="svg_21">
</g><g id="svg_22">
</g><g id="svg_23">
</g><g id="svg_24">
</g><g id="svg_25">
</g><g id="svg_26">
</g></g></svg>