<?xml version="1.0" encoding="utf-8"?>
<!-- Generator: Adobe Illustrator 16.0.0, SVG Export Plug-In . SVG Version: 6.00 Build 0)  -->
<!DOCTYPE svg PUBLIC "-//W3C//DTD SVG 1.1//EN" "http://www.w3.org/Graphics/SVG/1.1/DTD/svg11.dtd">
<svg version="1.1" id="Layer_1" xmlns="http://www.w3.org/2000/svg" xmlns:xlink="http://www.w3.org/1999/xlink" x="0px" y="0px"
	 width="5669.29px" height="4251.971px" viewBox="0 0 5669.29 4251.971" enable-background="new 0 0 5669.29 4251.971"
	 xml:space="preserve">
<path fill-rule="evenodd" clip-rule="evenodd" fill="#1E2229" d="M1991.278,302.336h1686.685c6.023,0,11.005,4.898,11.005,10.872
	v1048.489c0,6.005-4.981,10.905-11.005,10.905H1991.278c-6.022,0-10.921-4.899-10.921-10.905V313.208
	C1980.357,307.234,1985.256,302.336,1991.278,302.336L1991.278,302.336z"/>
<path fill-rule="evenodd" clip-rule="evenodd" fill="#6D737F" d="M2201.948,535.32h460.941c1.025,0,1.888,0.814,1.888,1.938v187.283
	c0,1.123-0.863,1.937-1.888,1.937h-460.941c-1.073,0-1.936-0.814-1.936-1.937V537.258
	C2200.013,536.134,2200.875,535.32,2201.948,535.32L2201.948,535.32z"/>
<path fill-rule="evenodd" clip-rule="evenodd" fill="#6D737F" d="M2201.948,840.373h1274.638c1.026,0,1.889,0.781,1.889,1.856
	v187.38c0,1.075-0.862,1.92-1.889,1.92H2201.948c-1.073,0-1.936-0.846-1.936-1.92v-187.38
	C2200.013,841.154,2200.875,840.373,2201.948,840.373L2201.948,840.373z"/>
<path fill-rule="evenodd" clip-rule="evenodd" fill="#6D737F" d="M243.07,2796.632h1456.81c6.022,0,11.002,4.9,11.002,10.922
	v1048.392c0,6.022-4.98,11.001-11.002,11.001H243.07c-6.022,0-10.921-4.979-10.921-11.001V2807.554
	C232.148,2801.532,237.048,2796.632,243.07,2796.632L243.07,2796.632z"/>
<path fill-rule="evenodd" clip-rule="evenodd" fill="#1E2229" d="M424.168,3059.06h398.41c1.025,0,1.888,0.765,1.888,1.969v187.301
	c0,1.123-0.863,1.887-1.888,1.887h-398.41c-1.075,0-1.92-0.764-1.92-1.887v-187.301
	C422.248,3059.824,423.093,3059.06,424.168,3059.06L424.168,3059.06z"/>
<path fill-rule="evenodd" clip-rule="evenodd" fill="#1E2229" d="M424.168,3364.113h1102.556c1.123,0,1.969,0.862,1.969,1.889
	v187.38c0,1.025-0.847,1.889-1.969,1.889H424.168c-1.075,0-1.92-0.863-1.92-1.889v-187.38
	C422.248,3364.976,423.093,3364.113,424.168,3364.113L424.168,3364.113z"/>
<path fill-rule="evenodd" clip-rule="evenodd" fill="#6D737F" d="M2106.281,2796.632h1456.761c6.104,0,10.923,4.9,10.923,10.922
	v1048.392c0,6.022-4.818,11.001-10.923,11.001H2106.281c-6.021,0-11.002-4.979-11.002-11.001V2807.554
	C2095.279,2801.532,2100.26,2796.632,2106.281,2796.632L2106.281,2796.632z"/>
<path fill-rule="evenodd" clip-rule="evenodd" fill="#1E2229" d="M2287.347,3059.06h398.36c1.075,0,1.937,0.765,1.937,1.969v187.301
	c0,1.123-0.862,1.887-1.937,1.887h-398.36c-1.123,0-1.986-0.764-1.986-1.887v-187.301
	C2285.361,3059.824,2286.225,3059.06,2287.347,3059.06L2287.347,3059.06z"/>
<path fill-rule="evenodd" clip-rule="evenodd" fill="#1E2229" d="M2287.347,3364.113h1102.589c1.024,0,1.889,0.862,1.889,1.889
	v187.38c0,1.025-0.864,1.889-1.889,1.889H2287.347c-1.123,0-1.986-0.863-1.986-1.889v-187.38
	C2285.361,3364.976,2286.225,3364.113,2287.347,3364.113L2287.347,3364.113z"/>
<path fill-rule="evenodd" clip-rule="evenodd" fill="#6D737F" d="M3969.363,2796.632h1456.858c6.007,0,10.921,4.9,10.921,10.922
	v1048.392c0,6.022-4.914,11.001-10.921,11.001H3969.363c-6.021,0-10.841-4.979-10.841-11.001V2807.554
	C3958.522,2801.532,3963.342,2796.632,3969.363,2796.632L3969.363,2796.632z"/>
<path fill-rule="evenodd" clip-rule="evenodd" fill="#1E2229" d="M4150.461,3059.06h398.328c1.204,0,1.969,0.765,1.969,1.969
	v187.301c0,1.123-0.765,1.887-1.969,1.887h-398.328c-1.025,0-1.889-0.764-1.889-1.887v-187.301
	C4148.572,3059.824,4149.436,3059.06,4150.461,3059.06L4150.461,3059.06z"/>
<path fill-rule="evenodd" clip-rule="evenodd" fill="#1E2229" d="M4150.461,3364.113H5253.1c1.041,0,1.902,0.862,1.902,1.889v187.38
	c0,1.025-0.861,1.889-1.902,1.889H4150.461c-1.025,0-1.889-0.863-1.889-1.889v-187.38
	C4148.572,3364.976,4149.436,3364.113,4150.461,3364.113L4150.461,3364.113z"/>
<path fill-rule="evenodd" clip-rule="evenodd" fill="#D4D3D1" d="M2646.728,1885.72h157.759v-512.517
	c0-0.341,0.179-0.602,0.603-0.602h59.146c0.341,0,0.52,0.261,0.52,0.602v512.517h157.89c5.941,0,10.92,4.9,10.92,10.874v157.905
	h1638.659h28.954h30.174c0.262,0,0.521,0.163,0.521,0.603v740.928c0,0.262-0.26,0.603-0.521,0.603h-59.128
	c-0.343,0-0.603-0.341-0.603-0.603v-681.246H3033.564v157.694c0,6.104-4.979,11.002-10.92,11.002h-157.89v512.55
	c0,0.262-0.179,0.603-0.52,0.603h-59.146c-0.424,0-0.603-0.341-0.603-0.603v-512.55h-157.759c-6.071,0-10.97-4.898-10.97-11.002
	v-157.694H997.719v681.246c0,0.262-0.261,0.603-0.602,0.603h-59.146c-0.342,0-0.602-0.341-0.602-0.603v-740.374
	c0-0.311,0.26-0.554,0.602-0.554h29.573c0-0.439,0.293-0.603,0.603-0.603h1667.611v-157.905
	C2635.758,1890.62,2640.657,1885.72,2646.728,1885.72L2646.728,1885.72z M2726.152,1969.735h216.986
	c3.434,0,6.363,2.882,6.363,6.364v217.035c0,3.45-2.93,6.315-6.363,6.315h-216.986c-3.482,0-6.363-2.865-6.363-6.315V1976.1
	C2719.789,1972.617,2722.67,1969.735,2726.152,1969.735L2726.152,1969.735z"/>
</svg>
