<svg xmlns="http://www.w3.org/2000/svg" xmlns:xlink="http://www.w3.org/1999/xlink" version="1.1" enable-background="new 0 0 500 500" xml:space="preserve" width="508.70129866912885" height="263.10389600738665"><rect id="backgroundrect" width="100%" height="100%" x="0" y="0" fill="none" stroke="none" class=""/>

<g class="currentLayer"><title>Layer 1</title><g id="svg_1" class="">
	<path fill="#ffffff" d="M499.1428573131561,74.21817865371705 l-32.4,-15.7 v-39.5 c0,-10.1 -8.3,-18.3 -18.3,-18.3 H25.542857313156127 C15.442857313156129,0.6181786537170377 7.142857313156128,8.918178653717035 7.142857313156128,18.918178653717042 v225.7 c0,10.1 8.3,18.3 18.3,18.3 h423 c10.1,0 18.3,-8.3 18.3,-18.3 v-39.6 l32.4,-15.7 c4.4,-2.1 7.9,-8.8 7.9,-14.8 v-31.8 c0,-6 0,-10.9 0,-10.9 s0,-4.9 0,-10.9 v-31.8 C507.0428573131561,82.91817865371704 503.5428573131561,76.31817865371704 499.1428573131561,74.21817865371705 zM430.1428573131561,208.01817865371703 v18.3 h-18.3 H62.14285731315613 H43.74285731315613 v-18.3 V55.61817865371705 v-18.3 H62.14285731315613 h368 V208.01817865371703 z" id="svg_2"/>
	<polygon fill="#ffffff" points="158.94284296035767,63.91821002960205 77.34285974502563,63.91821002960205 77.34285974502563,199.71819019317627 226.64283990859985,199.71819019317627 " id="svg_3"/>
	<polygon fill="#ffffff" points="320.5428490638733,199.71819019317627 252.94284296035767,63.91821002960205 199.94284296035767,63.91821002960205 267.6428551673889,199.71819019317627 " id="svg_4"/>
</g></g></svg>