<?xml version="1.0" encoding="utf-8"?>
<!-- Generator: Adobe Illustrator 16.0.0, SVG Export Plug-In . SVG Version: 6.00 Build 0)  -->
<!DOCTYPE svg PUBLIC "-//W3C//DTD SVG 1.1//EN" "http://www.w3.org/Graphics/SVG/1.1/DTD/svg11.dtd">
<svg version="1.1" id="Layer_1" xmlns="http://www.w3.org/2000/svg" xmlns:xlink="http://www.w3.org/1999/xlink" x="0px" y="0px"
	 width="500px" height="500px" viewBox="0 0 500 500" enable-background="new 0 0 500 500" xml:space="preserve">
<g>
	<path d="M7.702,256.047l48.181-48.4h31.02l-48.4,48.621l48.4,49.061h-31.02L7.702,256.047z"/>
	<path d="M165.881,331.729c-9.9-4.18-18.48-10.121-25.96-17.602c-7.48-7.479-13.42-16.059-17.601-25.959
		c-4.18-9.9-6.38-20.681-6.38-31.681s2.2-21.78,6.38-31.9c4.181-9.68,10.12-18.26,17.601-25.96c7.479-7.48,16.06-13.2,25.96-17.38
		s20.68-6.38,31.681-6.38c11,0,21.779,2.2,31.899,6.38c9.681,4.18,18.261,9.9,25.961,17.38c7.479,7.7,13.199,16.28,17.38,25.96
		c4.18,10.12,6.38,20.9,6.38,31.9s-2.2,21.78-6.38,31.681c-4.181,9.9-9.9,18.48-17.38,25.959c-7.7,7.48-16.28,13.422-25.961,17.602
		c-10.12,4.18-20.899,6.379-31.899,6.379C186.561,338.107,175.781,335.908,165.881,331.729z M157.961,216.887
		c-10.561,10.56-16.5,24.64-16.5,39.6s5.939,29.04,16.5,39.601c10.56,10.561,24.64,16.5,39.601,16.5c14.96,0,29.04-5.939,39.6-16.5
		c10.561-10.561,16.5-24.641,16.5-39.601s-5.939-29.04-16.5-39.6c-10.56-10.56-24.64-16.5-39.6-16.5
		C182.601,200.387,168.521,206.327,157.961,216.887z"/>
	<path d="M385.661,305.328c-4.619,15.84-18.92,28.379-36.739,31.9c-3.301,0.66-6.601,0.879-9.9,0.879c-6.601,0-13.2-1.1-19.36-3.52
		c-10.34-4.18-19.36-11-27.06-20.9l20.239-15.84c4.62,6.16,10.12,10.561,16.061,12.76c4.84,1.98,10.12,2.42,14.96,1.32
		c8.36-1.539,15.18-7.039,17.16-13.641c2.2-7.479-2.86-14.08-7.48-18.479c-7.26-6.819-19.14-18.479-20.02-19.36l-20.021-18.92
		c-6.16-5.94-10.34-12.54-12.54-19.58c-2.2-6.82-2.42-14.08-0.439-20.68c1.979-7.04,6.16-13.2,12.1-18.26
		c5.5-4.62,12.32-7.92,19.58-9.24c7.92-1.76,16.28-1.1,24.2,1.76c8.36,3.3,15.84,8.8,22.22,16.5l-20.02,16.061
		c-8.36-10.12-16.94-10.12-21.561-9.24c-5.72,1.1-10.56,4.84-11.88,9.46c-0.88,3.08-0.66,8.14,6.16,14.74l27.28,26.18
		c3.96,3.96,8.8,8.58,12.32,11.88c7.04,6.38,11.88,13.641,14.3,21.34C387.642,289.928,387.861,297.848,385.661,305.328z"/>
	<path d="M415.361,305.328l48.181-49.061l-48.181-48.621h30.8l48.4,48.4l-48.4,49.281H415.361z"/>
</g>
</svg>
