<?xml version="1.0" encoding="utf-8"?>
<!-- Generator: Adobe Illustrator 16.0.0, SVG Export Plug-In . SVG Version: 6.00 Build 0)  -->
<!DOCTYPE svg PUBLIC "-//W3C//DTD SVG 1.1//EN" "http://www.w3.org/Graphics/SVG/1.1/DTD/svg11.dtd">
<svg version="1.1" id="Layer_1" xmlns="http://www.w3.org/2000/svg" xmlns:xlink="http://www.w3.org/1999/xlink" x="0px" y="0px"
	 width="5669.29px" height="4251.971px" viewBox="0 0 5669.29 4251.971" enable-background="new 0 0 5669.29 4251.971"
	 xml:space="preserve">
<rect fill="#6D737F" stroke="#000000" stroke-miterlimit="10" width="5669.29" height="553"/>
<rect y="553" fill="#262A35" stroke="#000000" stroke-miterlimit="10" width="5669.29" height="3698.971"/>
<circle fill="#262A35" stroke="#000000" stroke-miterlimit="10" cx="262" cy="280.5" r="97.5"/>
<circle fill="#262A35" stroke="#000000" stroke-miterlimit="10" cx="587.5" cy="280.5" r="97.5"/>
<circle fill="#262A35" stroke="#000000" stroke-miterlimit="10" cx="916" cy="275" r="97.5"/>
<g>
	<path fill="#6D737F" stroke="#000000" stroke-miterlimit="10" d="M375.2,1048.105l124.738-64.25v18.549l-105.113,52.691v0.538
		l105.113,52.691v18.549l-124.738-64.25V1048.105z"/>
	<path fill="#F26937" d="M537.306,936.002h23.658v81.188h0.538c3.763-6.721,9.678-12.635,16.936-16.667
		c6.99-4.033,15.324-6.721,24.195-6.721c17.474,0,45.432,10.754,45.432,55.648v77.423h-23.657v-74.735
		c0-20.969-7.796-38.712-30.109-38.712c-15.323,0-27.42,10.753-31.722,23.658c-1.344,3.226-1.613,6.721-1.613,11.291v78.499h-23.658
		V936.002z"/>
	<path fill="#F26937" d="M713.929,959.391v37.368h33.873v18.011h-33.873v70.165c0,16.13,4.57,25.271,17.743,25.271
		c6.183,0,10.753-0.807,13.71-1.613l1.075,17.743c-4.57,1.882-11.828,3.226-20.969,3.226c-11.022,0-19.894-3.495-25.539-9.947
		c-6.72-6.989-9.14-18.55-9.14-33.873v-70.972h-20.162v-18.011h20.162v-31.185L713.929,959.391z"/>
	<path fill="#F26937" d="M774.415,1031.975c0-13.441-0.269-24.463-1.075-35.216h20.7l1.075,20.969h0.807
		c7.259-12.366,19.356-23.926,40.862-23.926c17.743,0,31.185,10.754,36.83,26.077h0.539c4.032-7.258,9.14-12.904,14.517-16.937
		c7.796-5.915,16.398-9.141,28.765-9.141c17.205,0,42.745,11.291,42.745,56.455v76.617h-23.12v-73.66
		c0-25.001-9.141-40.055-28.228-40.055c-13.441,0-23.926,9.946-27.959,21.506c-1.075,3.226-1.881,7.527-1.881,11.829v80.381h-23.12
		v-77.961c0-20.7-9.14-35.754-27.152-35.754c-14.786,0-25.539,11.828-29.302,23.657c-1.344,3.495-1.882,7.528-1.882,11.56v78.499
		h-23.12V1031.975z"/>
	<path fill="#F26937" d="M998.625,936.002h23.658v190.871h-23.658V936.002z"/>
	<path fill="#6D737F" stroke="#000000" stroke-miterlimit="10" d="M1184.924,1062.891l-124.738,63.982v-18.549l105.919-52.691
		v-0.538l-105.919-52.691v-18.549l124.738,63.981V1062.891z"/>
	<path fill="#6D737F" stroke="#000000" stroke-miterlimit="10" d="M568.761,1370.708l124.738-64.25v18.549l-105.113,52.69v0.539
		l105.113,52.69v18.549l-124.738-64.25V1370.708z"/>
	<path fill="#F26937" d="M730.867,1258.604h23.658v81.188h0.538c3.764-6.721,9.678-12.635,16.936-16.667
		c6.99-4.033,15.324-6.721,24.195-6.721c17.474,0,45.432,10.754,45.432,55.648v77.423h-23.657v-74.735
		c0-20.969-7.796-38.712-30.109-38.712c-15.323,0-27.42,10.753-31.722,23.657c-1.344,3.226-1.613,6.721-1.613,11.291v78.499h-23.658
		V1258.604z"/>
	<path fill="#F26937" d="M893.242,1388.719c0.538,31.991,20.969,45.164,44.626,45.164c16.936,0,27.152-2.958,36.023-6.721
		l4.032,16.937c-8.334,3.763-22.582,8.065-43.282,8.065c-40.056,0-63.982-26.345-63.982-65.595c0-39.25,23.12-70.165,61.024-70.165
		c42.476,0,53.767,37.368,53.767,61.293c0,4.839-0.538,8.603-0.807,11.022H893.242z M962.601,1371.783
		c0.269-15.054-6.183-38.442-32.798-38.442c-23.926,0-34.41,22.043-36.292,38.442H962.601z"/>
	<path fill="#F26937" d="M1086.8,1449.475l-1.882-16.398h-0.806c-7.259,10.215-21.238,19.356-39.787,19.356
		c-26.346,0-39.787-18.549-39.787-37.368c0-31.453,27.958-48.658,78.23-48.39v-2.688c0-10.753-2.958-30.109-29.572-30.109
		c-12.097,0-24.732,3.764-33.873,9.678l-5.376-15.592c10.753-6.99,26.345-11.561,42.744-11.561
		c39.787,0,49.465,27.152,49.465,53.229v48.658c0,11.291,0.537,22.313,2.15,31.185H1086.8z M1083.306,1383.074
		c-25.808-0.538-55.111,4.032-55.111,29.303c0,15.323,10.216,22.582,22.313,22.582c16.937,0,27.689-10.753,31.454-21.775
		c0.807-2.42,1.344-5.108,1.344-7.528V1383.074z"/>
	<path fill="#F26937" d="M1256.703,1258.604v157.267c0,11.56,0.268,24.732,1.075,33.604h-21.237l-1.075-22.582h-0.538
		c-7.259,14.517-23.12,25.54-44.357,25.54c-31.453,0-55.647-26.614-55.647-66.133c-0.269-43.281,26.614-69.896,58.336-69.896
		c19.894,0,33.335,9.41,39.25,19.894h0.538v-77.692H1256.703z M1233.045,1372.321c0-2.958-0.269-6.99-1.075-9.947
		c-3.495-15.055-16.398-27.421-34.142-27.421c-24.464,0-38.981,21.507-38.981,50.271c0,26.345,12.904,48.121,38.443,48.121
		c15.861,0,30.378-10.484,34.68-28.227c0.807-3.226,1.075-6.452,1.075-10.216V1372.321z"/>
	<path fill="#6D737F" stroke="#000000" stroke-miterlimit="10" d="M1418.809,1385.494l-124.738,63.981v-18.549l105.919-52.69v-0.539
		l-105.919-52.69v-18.549l124.738,63.981V1385.494z"/>
	<path fill="#6D737F" stroke="#000000" stroke-miterlimit="10" d="M762.323,1693.31l124.738-64.25v18.549l-105.113,52.69v0.539
		l105.113,52.69v18.549l-124.738-64.25V1693.31z"/>
	<path fill="#F26937" d="M952.925,1604.596v37.368h33.873v18.011h-33.873v70.165c0,16.13,4.57,25.271,17.743,25.271
		c6.183,0,10.753-0.807,13.711-1.613l1.075,17.743c-4.57,1.882-11.829,3.226-20.968,3.226c-11.023,0-19.894-3.495-25.54-9.947
		c-6.72-6.989-9.14-18.549-9.14-33.873v-70.972h-20.162v-18.011h20.162v-31.185L952.925,1604.596z"/>
	<path fill="#F26937" d="M1039.758,1605.402c0.269,8.065-5.646,14.517-15.055,14.517c-8.333,0-14.248-6.452-14.248-14.517
		c0-8.334,6.183-14.786,14.785-14.786C1034.112,1590.616,1039.758,1597.068,1039.758,1605.402z M1013.412,1772.078v-130.114h23.658
		v130.114H1013.412z"/>
	<path fill="#F26937" d="M1104.813,1604.596v37.368h33.873v18.011h-33.873v70.165c0,16.13,4.57,25.271,17.743,25.271
		c6.183,0,10.753-0.807,13.711-1.613l1.075,17.743c-4.57,1.882-11.829,3.226-20.969,3.226c-11.022,0-19.894-3.495-25.54-9.947
		c-6.72-6.989-9.14-18.549-9.14-33.873v-70.972h-20.162v-18.011h20.162v-31.185L1104.813,1604.596z"/>
	<path fill="#F26937" d="M1165.3,1581.207h23.658v190.871H1165.3V1581.207z"/>
	<path fill="#F26937" d="M1241.917,1711.322c0.539,31.99,20.969,45.164,44.626,45.164c16.936,0,27.152-2.958,36.023-6.721
		l4.032,16.936c-8.333,3.763-22.582,8.065-43.282,8.065c-40.056,0-63.981-26.345-63.981-65.595c0-39.249,23.12-70.165,61.024-70.165
		c42.476,0,53.767,37.368,53.767,61.293c0,4.839-0.538,8.603-0.807,11.023H1241.917z M1311.275,1694.385
		c0.269-15.054-6.183-38.442-32.798-38.442c-23.926,0-34.41,22.044-36.292,38.442H1311.275z"/>
	<path fill="#6D737F" stroke="#000000" stroke-miterlimit="10" d="M1486.285,1708.096l-124.738,63.981v-18.549l105.919-52.69v-0.539
		l-105.919-52.69v-18.549l124.738,63.981V1708.096z"/>
	<path fill="#6D737F" stroke="#000000" stroke-miterlimit="10" d="M1578.224,1743.582c10.484,6.452,25.808,11.829,41.938,11.829
		c23.925,0,37.905-12.635,37.905-30.916c0-16.936-9.678-26.614-34.142-36.024c-29.571-10.484-47.852-25.808-47.852-51.346
		c0-28.227,23.388-49.196,58.605-49.196c18.549,0,31.991,4.301,40.056,8.872l-6.452,19.087c-5.915-3.226-18.012-8.603-34.411-8.603
		c-24.733,0-34.141,14.786-34.141,27.152c0,16.936,11.021,25.271,36.023,34.948c30.647,11.829,46.239,26.615,46.239,53.229
		c0,27.958-20.7,52.153-63.444,52.153c-17.475,0-36.562-5.107-46.239-11.56L1578.224,1743.582z"/>
	<path fill="#6D737F" stroke="#000000" stroke-miterlimit="10" d="M1727.962,1711.322c0.539,31.99,20.97,45.164,44.626,45.164
		c16.936,0,27.152-2.958,36.024-6.721l4.032,16.936c-8.333,3.763-22.582,8.065-43.282,8.065c-40.056,0-63.981-26.345-63.981-65.595
		c0-39.249,23.12-70.165,61.024-70.165c42.475,0,53.766,37.368,53.766,61.293c0,4.839-0.538,8.603-0.807,11.023H1727.962z
		 M1797.321,1694.385c0.269-15.054-6.184-38.442-32.798-38.442c-23.926,0-34.411,22.044-36.292,38.442H1797.321z"/>
	<path fill="#6D737F" stroke="#000000" stroke-miterlimit="10" d="M1958.351,1736.592c0,13.441,0.269,25.27,1.075,35.485h-20.969
		l-1.344-21.238h-0.538c-6.183,10.484-19.894,24.195-43.013,24.195c-20.431,0-44.895-11.291-44.895-56.992v-76.079h23.657v72.046
		c0,24.732,7.527,41.4,29.034,41.4c15.861,0,26.883-11.022,31.185-21.506c1.344-3.495,2.15-7.796,2.15-12.098v-79.842h23.657
		V1736.592z"/>
	<path fill="#6D737F" stroke="#000000" stroke-miterlimit="10" d="M2052.171,1743.582c10.484,6.452,25.808,11.829,41.938,11.829
		c23.926,0,37.905-12.635,37.905-30.916c0-16.936-9.678-26.614-34.141-36.024c-29.571-10.484-47.853-25.808-47.853-51.346
		c0-28.227,23.389-49.196,58.605-49.196c18.55,0,31.991,4.301,40.056,8.872l-6.452,19.087c-5.915-3.226-18.012-8.603-34.411-8.603
		c-24.732,0-34.142,14.786-34.142,27.152c0,16.936,11.022,25.271,36.023,34.948c30.647,11.829,46.239,26.615,46.239,53.229
		c0,27.958-20.7,52.153-63.444,52.153c-17.475,0-36.562-5.107-46.239-11.56L2052.171,1743.582z"/>
	<path fill="#6D737F" stroke="#000000" stroke-miterlimit="10" d="M2213.472,1605.402c0.268,8.065-5.646,14.517-15.056,14.517
		c-8.333,0-14.247-6.452-14.247-14.517c0-8.334,6.183-14.786,14.785-14.786C2207.826,1590.616,2213.472,1597.068,2213.472,1605.402z
		 M2187.125,1772.078v-130.114h23.658v130.114H2187.125z"/>
	<path fill="#6D737F" stroke="#000000" stroke-miterlimit="10" d="M2278.527,1604.596v37.368h33.873v18.011h-33.873v70.165
		c0,16.13,4.57,25.271,17.743,25.271c6.183,0,10.753-0.807,13.711-1.613l1.075,17.743c-4.57,1.882-11.829,3.226-20.968,3.226
		c-11.023,0-19.894-3.495-25.54-9.947c-6.72-6.989-9.14-18.549-9.14-33.873v-70.972h-20.162v-18.011h20.162v-31.185
		L2278.527,1604.596z"/>
	<path fill="#6D737F" stroke="#000000" stroke-miterlimit="10" d="M2350.575,1711.322c0.538,31.99,20.969,45.164,44.626,45.164
		c16.936,0,27.152-2.958,36.023-6.721l4.032,16.936c-8.333,3.763-22.581,8.065-43.281,8.065c-40.057,0-63.982-26.345-63.982-65.595
		c0-39.249,23.12-70.165,61.024-70.165c42.476,0,53.767,37.368,53.767,61.293c0,4.839-0.537,8.603-0.807,11.023H2350.575z
		 M2419.934,1694.385c0.269-15.054-6.183-38.442-32.797-38.442c-23.926,0-34.411,22.044-36.292,38.442H2419.934z"/>
	<path fill="#6D737F" stroke="#000000" stroke-miterlimit="10" d="M2527.195,1693.31l124.738-64.25v18.549l-105.113,52.69v0.539
		l105.113,52.69v18.549l-124.738-64.25V1693.31z"/>
	<path fill="#6D737F" stroke="#000000" stroke-miterlimit="10" d="M2669.407,1782.831l75.004-194.903h18.28l-75.272,194.903
		H2669.407z"/>
	<path fill="#F26937" d="M2810.004,1604.596v37.368h33.873v18.011h-33.873v70.165c0,16.13,4.57,25.271,17.743,25.271
		c6.183,0,10.753-0.807,13.71-1.613l1.076,17.743c-4.57,1.882-11.829,3.226-20.969,3.226c-11.022,0-19.894-3.495-25.54-9.947
		c-6.72-6.989-9.14-18.549-9.14-33.873v-70.972h-20.162v-18.011h20.162v-31.185L2810.004,1604.596z"/>
	<path fill="#F26937" d="M2896.837,1605.402c0.269,8.065-5.646,14.517-15.056,14.517c-8.333,0-14.247-6.452-14.247-14.517
		c0-8.334,6.183-14.786,14.785-14.786C2891.191,1590.616,2896.837,1597.068,2896.837,1605.402z M2870.49,1772.078v-130.114h23.658
		v130.114H2870.49z"/>
	<path fill="#F26937" d="M2961.893,1604.596v37.368h33.873v18.011h-33.873v70.165c0,16.13,4.57,25.271,17.743,25.271
		c6.183,0,10.753-0.807,13.711-1.613l1.075,17.743c-4.57,1.882-11.829,3.226-20.969,3.226c-11.022,0-19.894-3.495-25.54-9.947
		c-6.72-6.989-9.14-18.549-9.14-33.873v-70.972h-20.162v-18.011h20.162v-31.185L2961.893,1604.596z"/>
	<path fill="#F26937" d="M3022.379,1581.207h23.658v190.871h-23.658V1581.207z"/>
	<path fill="#F26937" d="M3098.995,1711.322c0.538,31.99,20.969,45.164,44.626,45.164c16.937,0,27.152-2.958,36.023-6.721
		l4.032,16.936c-8.333,3.763-22.581,8.065-43.281,8.065c-40.057,0-63.981-26.345-63.981-65.595
		c0-39.249,23.119-70.165,61.023-70.165c42.476,0,53.767,37.368,53.767,61.293c0,4.839-0.537,8.603-0.807,11.023H3098.995z
		 M3168.354,1694.385c0.269-15.054-6.183-38.442-32.797-38.442c-23.927,0-34.411,22.044-36.293,38.442H3168.354z"/>
	<path fill="#6D737F" stroke="#000000" stroke-miterlimit="10" d="M3343.363,1708.096l-124.738,63.981v-18.549l105.92-52.69v-0.539
		l-105.92-52.69v-18.549l124.738,63.981V1708.096z"/>
	<path fill="#6D737F" stroke="#000000" stroke-miterlimit="10" d="M568.761,2015.913l124.738-64.25v18.549l-105.113,52.69v0.539
		l105.113,52.69v18.549l-124.738-64.25V2015.913z"/>
	<path fill="#F26937" d="M730.867,1903.81h23.658v81.188h0.538c3.764-6.721,9.678-12.635,16.936-16.668
		c6.99-4.033,15.324-6.721,24.195-6.721c17.474,0,45.432,10.753,45.432,55.648v77.423h-23.657v-74.735
		c0-20.969-7.796-38.712-30.109-38.712c-15.323,0-27.42,10.753-31.722,23.658c-1.344,3.226-1.613,6.721-1.613,11.291v78.499h-23.658
		V1903.81z"/>
	<path fill="#F26937" d="M893.242,2033.925c0.538,31.99,20.969,45.164,44.626,45.164c16.936,0,27.152-2.958,36.023-6.721
		l4.032,16.936c-8.334,3.763-22.582,8.065-43.282,8.065c-40.056,0-63.982-26.345-63.982-65.595s23.12-70.165,61.024-70.165
		c42.476,0,53.767,37.368,53.767,61.293c0,4.839-0.538,8.603-0.807,11.023H893.242z M962.601,2016.988
		c0.269-15.054-6.183-38.442-32.798-38.442c-23.926,0-34.41,22.044-36.292,38.442H962.601z"/>
	<path fill="#F26937" d="M1086.8,2094.68l-1.882-16.398h-0.806c-7.259,10.215-21.238,19.356-39.787,19.356
		c-26.346,0-39.787-18.549-39.787-37.368c0-31.453,27.958-48.658,78.23-48.39v-2.688c0-10.753-2.958-30.109-29.572-30.109
		c-12.097,0-24.732,3.764-33.873,9.678l-5.376-15.592c10.753-6.99,26.345-11.56,42.744-11.56c39.787,0,49.465,27.152,49.465,53.229
		v48.658c0,11.291,0.537,22.313,2.15,31.185H1086.8z M1083.306,2028.279c-25.808-0.538-55.111,4.033-55.111,29.303
		c0,15.324,10.216,22.582,22.313,22.582c16.937,0,27.689-10.753,31.454-21.775c0.807-2.42,1.344-5.107,1.344-7.527V2028.279z"/>
	<path fill="#F26937" d="M1256.703,1903.81v157.267c0,11.559,0.268,24.732,1.075,33.604h-21.237l-1.075-22.582h-0.538
		c-7.259,14.517-23.12,25.539-44.357,25.539c-31.453,0-55.647-26.614-55.647-66.133c-0.269-43.282,26.614-69.896,58.336-69.896
		c19.894,0,33.335,9.409,39.25,19.894h0.538v-77.693H1256.703z M1233.045,2017.526c0-2.958-0.269-6.99-1.075-9.947
		c-3.495-15.055-16.398-27.421-34.142-27.421c-24.464,0-38.981,21.507-38.981,50.271c0,26.345,12.904,48.121,38.443,48.121
		c15.861,0,30.378-10.484,34.68-28.227c0.807-3.226,1.075-6.452,1.075-10.216V2017.526z"/>
	<path fill="#6D737F" stroke="#000000" stroke-miterlimit="10" d="M1418.809,2030.699l-124.738,63.981v-18.549l105.919-52.69v-0.539
		l-105.919-52.69v-18.549l124.738,63.981V2030.699z"/>
	<path fill="#6D737F" stroke="#000000" stroke-miterlimit="10" d="M568.761,2338.516l124.738-64.251v18.55l-105.113,52.69v0.538
		l105.113,52.69v18.55l-124.738-64.251V2338.516z"/>
	<path fill="#F26937" d="M729.792,2417.283c0.538-8.872,1.075-22.045,1.075-33.604v-157.268h23.389v81.726h0.538
		c8.334-14.517,23.388-23.927,44.357-23.927c32.26,0,55.111,26.883,54.842,66.402c0,46.507-29.302,69.627-58.337,69.627
		c-18.817,0-33.872-7.259-43.55-24.465h-0.807l-1.075,21.508H729.792z M754.256,2365.13c0,2.956,0.538,5.914,1.075,8.603
		c4.57,16.398,18.281,27.689,35.486,27.689c24.732,0,39.518-20.162,39.518-50.002c0-26.077-13.441-48.391-38.711-48.391
		c-16.13,0-31.185,11.022-36.023,29.034c-0.538,2.688-1.344,5.915-1.344,9.678V2365.13z"/>
	<path fill="#F26937" d="M1001.579,2351.15c0,48.121-33.334,69.09-64.789,69.09c-35.216,0-62.368-25.808-62.368-66.939
		c0-43.551,28.496-69.09,64.519-69.09C976.309,2284.211,1001.579,2311.363,1001.579,2351.15z M898.347,2352.494
		c0,28.496,16.399,50.003,39.519,50.003c22.582,0,39.518-21.237,39.518-50.54c0-22.045-11.021-50.003-38.98-50.003
		C910.445,2301.954,898.347,2327.762,898.347,2352.494z"/>
	<path fill="#F26937" d="M1143.792,2226.412v157.268c0,11.559,0.269,24.731,1.075,33.604h-21.237l-1.075-22.582h-0.538
		c-7.259,14.517-23.12,25.539-44.357,25.539c-31.453,0-55.647-26.614-55.647-66.133c-0.269-43.281,26.614-69.896,58.336-69.896
		c19.894,0,33.335,9.41,39.25,19.895h0.538v-77.693H1143.792z M1120.135,2340.129c0-2.957-0.269-6.99-1.075-9.947
		c-3.495-15.055-16.398-27.421-34.142-27.421c-24.464,0-38.981,21.507-38.981,50.271c0,26.345,12.904,48.12,38.443,48.12
		c15.861,0,30.378-10.484,34.68-28.227c0.807-3.227,1.075-6.451,1.075-10.216V2340.129z"/>
	<path fill="#F26937" d="M1191.645,2287.169l28.496,76.886c2.958,8.602,6.184,18.818,8.334,26.613h0.538
		c2.419-7.795,5.108-17.742,8.333-27.151l25.808-76.348h25.001l-35.486,92.746c-16.936,44.626-28.496,67.477-44.625,81.456
		c-11.561,10.216-23.12,14.248-29.035,15.323l-5.914-19.894c5.914-1.881,13.711-5.645,20.7-11.559
		c6.452-5.109,14.517-14.249,19.894-26.346c1.075-2.42,1.881-4.302,1.881-5.646c0-1.344-0.537-3.226-1.612-6.184l-48.121-119.897
		H1191.645z"/>
	<path fill="#6D737F" stroke="#000000" stroke-miterlimit="10" d="M1432.518,2353.301l-124.738,63.982v-18.55l105.919-52.69v-0.538
		l-105.919-52.69v-18.55l124.738,63.981V2353.301z"/>
	<path fill="#FFFFFF" stroke="#000000" stroke-miterlimit="10" d="M640.54,2538.262v268.832h-18.012v-268.832H640.54z"/>
	<path fill="#6D737F" stroke="#000000" stroke-miterlimit="10" d="M568.761,3306.324l124.738-64.252v18.549l-105.113,52.691v0.538
		l105.113,52.69v18.55l-124.738-64.25V3306.324z"/>
	<path fill="#6D737F" stroke="#000000" stroke-miterlimit="10" d="M710.974,3395.844l75.004-194.902h18.28l-75.273,194.902H710.974z
		"/>
	<path fill="#F26937" d="M821.999,3385.091c0.538-8.871,1.075-22.044,1.075-33.604v-157.266h23.388v81.725H847
		c8.334-14.518,23.389-23.926,44.357-23.926c32.26,0,55.11,26.883,54.841,66.4c0,46.508-29.302,69.629-58.336,69.629
		c-18.818,0-33.872-7.26-43.551-24.465h-0.807l-1.075,21.507H821.999z M846.462,3332.938c0,2.957,0.538,5.914,1.075,8.603
		c4.57,16.399,18.281,27.689,35.486,27.689c24.732,0,39.518-20.163,39.518-50.002c0-26.077-13.442-48.391-38.711-48.391
		c-16.13,0-31.185,11.022-36.024,29.034c-0.538,2.688-1.344,5.914-1.344,9.678V3332.938z"/>
	<path fill="#F26937" d="M1093.785,3318.959c0,48.121-33.334,69.09-64.788,69.09c-35.216,0-62.368-25.809-62.368-66.94
		c0-43.551,28.496-69.089,64.519-69.089C1068.516,3252.02,1093.785,3279.171,1093.785,3318.959z M990.554,3320.303
		c0,28.495,16.399,50.002,39.519,50.002c22.582,0,39.518-21.238,39.518-50.541c0-22.043-11.022-50.002-38.98-50.002
		S990.554,3295.57,990.554,3320.303z"/>
	<path fill="#F26937" d="M1235.999,3194.221v157.266c0,11.561,0.269,24.733,1.075,33.604h-21.238l-1.075-22.582h-0.538
		c-7.258,14.517-23.12,25.54-44.357,25.54c-31.453,0-55.648-26.615-55.648-66.133c-0.269-43.283,26.614-69.896,58.336-69.896
		c19.894,0,33.335,9.408,39.25,19.895h0.538v-77.693H1235.999z M1212.341,3307.936c0-2.956-0.268-6.988-1.075-9.945
		c-3.495-15.056-16.399-27.421-34.142-27.421c-24.464,0-38.981,21.505-38.981,50.271c0,26.345,12.904,48.12,38.443,48.12
		c15.861,0,30.378-10.484,34.68-28.227c0.807-3.227,1.075-6.453,1.075-10.217V3307.936z"/>
	<path fill="#F26937" d="M1283.852,3254.977l28.496,76.885c2.958,8.604,6.183,18.818,8.334,26.615h0.538
		c2.419-7.797,5.107-17.742,8.333-27.151l25.808-76.349h25.001l-35.486,92.746c-16.937,44.627-28.496,67.477-44.626,81.457
		c-11.56,10.215-23.119,14.248-29.034,15.322l-5.914-19.893c5.914-1.882,13.711-5.646,20.7-11.561
		c6.452-5.107,14.517-14.247,19.894-26.345c1.075-2.419,1.881-4.302,1.881-5.646c0-1.345-0.538-3.227-1.612-6.184l-48.122-119.898
		H1283.852z"/>
	<path fill="#6D737F" stroke="#000000" stroke-miterlimit="10" d="M1524.726,3321.108l-124.738,63.982v-18.55l105.92-52.69v-0.538
		l-105.92-52.691v-18.549l124.738,63.982V3321.108z"/>
	<path fill="#6D737F" stroke="#000000" stroke-miterlimit="10" d="M375.2,3628.926l124.738-64.251v18.55l-105.113,52.69v0.538
		l105.113,52.691v18.549l-124.738-64.25V3628.926z"/>
	<path fill="#6D737F" stroke="#000000" stroke-miterlimit="10" d="M517.412,3718.447l75.004-194.904h18.28l-75.272,194.904H517.412z
		"/>
	<path fill="#F26937" d="M629.513,3516.822h23.657v81.188h0.538c3.764-6.721,9.678-12.635,16.936-16.668
		c6.99-4.031,15.324-6.719,24.195-6.719c17.474,0,45.433,10.752,45.433,55.646v77.424h-23.657v-74.736
		c0-20.969-7.797-38.71-30.109-38.71c-15.324,0-27.42,10.753-31.722,23.657c-1.344,3.225-1.613,6.721-1.613,11.29v78.499h-23.657
		V3516.822z"/>
	<path fill="#F26937" d="M806.136,3540.212v37.366h33.873v18.013h-33.873v70.165c0,16.131,4.57,25.271,17.743,25.271
		c6.183,0,10.753-0.808,13.711-1.613l1.075,17.742c-4.57,1.882-11.829,3.227-20.968,3.227c-11.023,0-19.894-3.495-25.54-9.948
		c-6.72-6.988-9.14-18.547-9.14-33.871v-70.972h-20.162v-18.013h20.162v-31.184L806.136,3540.212z"/>
	<path fill="#F26937" d="M866.623,3612.797c0-13.442-0.269-24.465-1.075-35.219h20.7l1.075,20.969h0.807
		c7.258-12.365,19.356-23.924,40.862-23.924c17.743,0,31.185,10.752,36.83,26.076h0.538c4.033-7.26,9.141-12.904,14.517-16.937
		c7.796-5.915,16.398-9.14,28.765-9.14c17.205,0,42.745,11.289,42.745,56.453v76.617h-23.12v-73.659
		c0-25.001-9.141-40.057-28.228-40.057c-13.441,0-23.926,9.946-27.958,21.507c-1.075,3.226-1.882,7.527-1.882,11.828v80.381h-23.12
		v-77.961c0-20.699-9.14-35.755-27.152-35.755c-14.785,0-25.539,11.829-29.302,23.657c-1.344,3.494-1.882,7.527-1.882,11.56v78.499
		h-23.12V3612.797z"/>
	<path fill="#F26937" d="M1090.831,3516.822h23.658v190.871h-23.658V3516.822z"/>
	<path fill="#6D737F" stroke="#000000" stroke-miterlimit="10" d="M1277.131,3643.711l-124.738,63.982v-18.549l105.919-52.691
		v-0.538l-105.919-52.69v-18.55l124.738,63.982V3643.711z"/>
</g>
</svg>
